<svg id="Layer_1" data-name="Layer 1" xmlns="http://www.w3.org/2000/svg" viewBox="0 0 586.8 470.26"><defs><style>.cls-1{fill:none;stroke:#535461;stroke-miterlimit:10;stroke-width:2px;}.cls-2{fill:#6c63ff;}.cls-3{fill:#fc6681;}.cls-4{fill:#fe7ebb;}.cls-5{fill:#ffd037;}.cls-6{fill:#c2beff;}.cls-7{opacity:0.2;}.cls-10,.cls-7,.cls-9{isolation:isolate;}.cls-8{fill:#ffd5d8;}.cls-9{opacity:0.1;}.cls-10{opacity:0.05;}.cls-11{fill:#fff;}</style></defs><title>background-image-header</title><g id="undraw_social_ideas_e8rj" data-name="undraw social ideas e8rj"><path id="Path_306" data-name="Path 306" class="cls-1" d="M1296,439.49s-32.85-64.36-18.43-119a109.43,109.43,0,0,0-4-69.14,184.21,184.21,0,0,0-15.51-29.86" transform="translate(-1225 -148)"/><path id="Path_307" data-name="Path 307" class="cls-2" d="M1267,187c1.57,8.35-9,35.4-9,35.4s-19.66-21.38-21.23-29.72A15.38,15.38,0,0,1,1267,187Z" transform="translate(-1225 -148)"/><path id="Path_308" data-name="Path 308" class="cls-2" d="M1300.63,228.59c-3.23,7.84-26.8,24.82-26.8,24.82s-4.89-28.63-1.68-36.49a15.38,15.38,0,0,1,28.52,11.52l-.06.15Z" transform="translate(-1225 -148)"/><path id="Path_309" data-name="Path 309" class="cls-2" d="M1314.39,307.82c-6.75,5.16-35.66,7.89-35.66,7.89s10.23-27.18,17-32.33a15.38,15.38,0,0,1,18.68,24.44Z" transform="translate(-1225 -148)"/><path id="Path_310" data-name="Path 310" class="cls-2" d="M1311.26,370.11c-5.78,6.22-33.82,13.8-33.82,13.8s5.5-28.52,11.28-34.74A15.38,15.38,0,1,1,1311.35,370l-.09.09Z" transform="translate(-1225 -148)"/><path id="Path_311" data-name="Path 311" class="cls-2" d="M1242.39,261c7.08,4.69,36.11,5.48,36.11,5.48s-12-26.43-19.12-31.13a15.39,15.39,0,0,0-17,25.65Z" transform="translate(-1225 -148)"/><path id="Path_312" data-name="Path 312" class="cls-2" d="M1239.69,333.87c8.16,2.37,36.09-5.6,36.09-5.6s-19.38-21.61-27.55-24a15.38,15.38,0,1,0-8.54,29.55h0Z" transform="translate(-1225 -148)"/><path id="Path_313" data-name="Path 313" class="cls-2" d="M1246.78,405.08c7.64,3.71,36.51.61,36.51.61s-15.46-24.58-23.1-28.29a15.38,15.38,0,0,0-13.43,27.68Z" transform="translate(-1225 -148)"/><path id="Path_314" data-name="Path 314" class="cls-3" d="M1267,187c1.57,8.35-9,35.4-9,35.4s-19.66-21.38-21.23-29.72A15.38,15.38,0,0,1,1267,187Z" transform="translate(-1225 -148)"/><path id="Path_315" data-name="Path 315" class="cls-3" d="M1300.63,228.59c-3.23,7.84-26.8,24.82-26.8,24.82s-4.89-28.63-1.68-36.49a15.38,15.38,0,0,1,28.52,11.52l-.06.15Z" transform="translate(-1225 -148)"/><path id="Path_316" data-name="Path 316" class="cls-3" d="M1314.39,307.82c-6.75,5.16-35.66,7.89-35.66,7.89s10.23-27.18,17-32.33a15.38,15.38,0,0,1,18.68,24.44Z" transform="translate(-1225 -148)"/><path id="Path_317" data-name="Path 317" class="cls-3" d="M1311.26,370.11c-5.78,6.22-33.82,13.8-33.82,13.8s5.5-28.52,11.28-34.74A15.38,15.38,0,1,1,1311.35,370l-.09.09Z" transform="translate(-1225 -148)"/><path id="Path_318" data-name="Path 318" class="cls-3" d="M1242.39,261c7.08,4.69,36.11,5.48,36.11,5.48s-12-26.43-19.12-31.13a15.39,15.39,0,0,0-17,25.65Z" transform="translate(-1225 -148)"/><path id="Path_319" data-name="Path 319" class="cls-3" d="M1239.69,333.87c8.16,2.37,36.09-5.6,36.09-5.6s-19.38-21.61-27.55-24a15.38,15.38,0,1,0-8.54,29.55h0Z" transform="translate(-1225 -148)"/><path id="Path_320" data-name="Path 320" class="cls-3" d="M1246.78,405.08c7.64,3.71,36.51.61,36.51.61s-15.46-24.58-23.1-28.29a15.38,15.38,0,0,0-13.43,27.68Z" transform="translate(-1225 -148)"/><path id="Path_321" data-name="Path 321" class="cls-1" d="M1731.91,319.52S1773.6,254,1778.64,226a359.25,359.25,0,0,1,14.55-53.73" transform="translate(-1225 -148)"/><path id="Path_322" data-name="Path 322" class="cls-4" d="M1802.7,228.24l-26.3,2.24S1790.39,254.55,1802.7,228.24Z" transform="translate(-1225 -148)"/><path id="Path_323" data-name="Path 323" class="cls-4" d="M1756.81,213.69l20.83,16.68S1750.65,241.12,1756.81,213.69Z" transform="translate(-1225 -148)"/><path id="Path_324" data-name="Path 324" class="cls-4" d="M1806.07,205.29l-23.69,3.18S1803.27,225.44,1806.07,205.29Z" transform="translate(-1225 -148)"/><path id="Path_325" data-name="Path 325" class="cls-4" d="M1766.88,196.9l15.64,11S1763.52,215.93,1766.88,196.9Z" transform="translate(-1225 -148)"/><path id="Path_326" data-name="Path 326" class="cls-4" d="M1788.33,186.93s19.41-5.14,22.21-4,1.12,13.43-6.72,14S1788.33,186.93,1788.33,186.93Z" transform="translate(-1225 -148)"/><path id="Path_327" data-name="Path 327" class="cls-4" d="M1775.28,172.27s12.31,11.75,12.87,14.55-10.07,9.52-15.67,0S1775.28,172.27,1775.28,172.27Z" transform="translate(-1225 -148)"/><circle id="Ellipse_28" data-name="Ellipse 28" class="cls-5" cx="573.22" cy="25.39" r="5.6"/><circle id="Ellipse_29" data-name="Ellipse 29" class="cls-5" cx="563.15" cy="22.59" r="5.6"/><path id="Path_329" data-name="Path 329" class="cls-6" d="M1347.19,208.65c-2.88,3.49-4,8.4-5.23,13-10,37.21-34.58,67.16-62.59,88.53-11.86,9.06-26.31,21.21-23.71,37.44,1.39,8.72,7.53,15.12,12.1,22.25,9.56,14.87,12.65,35.09,8.1,52.89-5.18,20.26-19.66,39.18-15.17,59.65,2.76,12.62,12.14,21.58,21.16,29.29q21.12,18,43.57,33.8c10,7,20.71,13.89,32.4,14.78,10.3.79,20.38-3.13,30.16-7,8.54-3.36,17.3-6.89,24.2-13.66,4.47-4.42,8.09-10.12,13.09-13.73,11.75-8.49,26.83-3.11,40.3.51a140.32,140.32,0,0,0,96-8.8c46.4-21.82,81.75-67.58,127.12-92.15,19.51-10.57,40.74-17.12,58.8-30.73a109.85,109.85,0,0,0,25.85-28,121,121,0,0,0,18.93-74.24c-2.12-26.3-14.09-51.65-32.86-66.49-20.09-15.89-45.47-18.86-68.34-28.4-23.61-9.86-44.61-26.8-68-37.37A139,139,0,0,0,1503.18,163c-25.45,12.85-51.24,42.88-79.59,45.14C1403.38,209.77,1363,189.54,1347.19,208.65Z" transform="translate(-1225 -148)"/><path id="Path_330" data-name="Path 330" class="cls-7" d="M1573.9,350.17v1.12c0,11.52-8.77,24.8-24.81,24.8a24.68,24.68,0,0,1-13.39-3.92,16.42,16.42,0,0,0,2.1.11,17.48,17.48,0,0,0,10.83-3.72,8.74,8.74,0,0,1-8.12-6,11.48,11.48,0,0,0,1.65.14,9.85,9.85,0,0,0,2.29-.3,8.74,8.74,0,0,1-7-8.56v-.11a8.74,8.74,0,0,0,3.92,1.12,8.74,8.74,0,0,1-2.7-11.66,24.76,24.76,0,0,0,18,9.12,10.21,10.21,0,0,1-.22-2,8.72,8.72,0,0,1,15.11-6,17.39,17.39,0,0,0,5.54-2.1,8.69,8.69,0,0,1-3.83,4.8,17.6,17.6,0,0,0,5-1.35,18.5,18.5,0,0,1-4.37,4.5Z" transform="translate(-1225 -148)"/><path id="Path_331" data-name="Path 331" class="cls-8" d="M1505.74,356.65C1487.51,410,1489.58,428,1489.58,428l3.92,30.23s-78.92,11.19-66.61-25.75c7.06-21.18,5.47-55.25,2.83-80.45-2-18.77-4.51-32.62-4.51-32.62l90.68,9.52C1512,339.07,1508.61,348.29,1505.74,356.65Z" transform="translate(-1225 -148)"/><path id="Path_332" data-name="Path 332" class="cls-9" d="M1515.89,328.89c-3.92,10.17-7.28,19.4-10.17,27.76a59.89,59.89,0,0,1-76-4.66c-2-18.77-4.51-32.62-4.51-32.62Z" transform="translate(-1225 -148)"/><circle id="Ellipse_30" data-name="Ellipse 30" class="cls-8" cx="245.57" cy="159.06" r="59.89"/><path id="Path_333" data-name="Path 333" class="cls-8" d="M1510.85,461.54l-35.26-15.11,6.15-47a76.26,76.26,0,0,1,15.15,3.36c13.58,4.4,31.9,14.33,35.77,36.29v.11C1538.84,475,1510.85,461.54,1510.85,461.54Z" transform="translate(-1225 -148)"/><path id="Path_334" data-name="Path 334" class="cls-10" d="M1532.68,439l-4.74,7.11-19,1.26V434.67s-4.55-14.83-4.55-15.95-7.57-14.41-7.57-14.41l-3.06-2.38,3.12.82C1510.5,407.15,1528.85,417.09,1532.68,439Z" transform="translate(-1225 -148)"/><path id="Path_335" data-name="Path 335" class="cls-2" d="M1493.8,401.93l10.91,20.43v25.19l15.12,3.92-9.52-26.31S1499.4,404.17,1493.8,401.93Z" transform="translate(-1225 -148)"/><path id="Path_336" data-name="Path 336" class="cls-2" d="M1395,618.26h0a59,59,0,0,1,2.12-18.17c7.14-26.24-4.92-111.66-4.92-111.66s3.36-72.76,48.13-85.08c42.76-11.75,72.77,36.7,75.37,41.1l.19.32,17.8-7.79.12-.05v.28c.14,4,3.2,11.83,7.44,20.91A265,265,0,0,1,1558,505a271.65,271.65,0,0,1,8.07,54c1.74,35.73,9.19,59.25,9.19,59.25Z" transform="translate(-1225 -148)"/><path id="Path_337" data-name="Path 337" class="cls-9" d="M1558,505l2.42,16.18-44.78-76.68.09,0,17.82-7.8.17.33.12.23c.14,4,3.2,11.83,7.44,20.9A265.09,265.09,0,0,1,1558,505Z" transform="translate(-1225 -148)"/><path id="Path_338" data-name="Path 338" class="cls-9" d="M1442.89,224.19c-23.6-2.66-48.57,3.12-66.94,18.17s-29.1,39.81-25,63.2c3.46,19.45,16.5,38.12,11.85,57.32-4.42,18.23-22.89,28.86-39.62,37.36l-58.43,29.7c-6.31,3.21-13.12,6.95-15.67,13.54-2.66,6.83.13,14.55,3.88,20.87s8.54,12.21,10.29,19.33c2.24,9.09-.93,18.73-5.81,26.7s-11.46,14.78-17,22.33c-7.68,10.46-13.41,22.7-14.26,35.65S1230,595,1240,603.19c9.2,7.55,21.63,9.8,33.52,10.39,23.86,1.17,47.58-3.23,71.09-7.6l22.6-4.22c20.8-3.88,43.35-8.75,56.89-25,15.67-18.82,13.86-46.17,10.78-70.45s-6-51.22,8.22-71.15c9.3-13.06,24.87-21.16,32.26-35.38,13.53-26-6.16-58.05.2-86.67,1.8-8.1,5.65-15.6,8.05-23.55,4.28-14.14,4.73-34.53-2.6-48C1474.3,229.19,1455.59,225.62,1442.89,224.19Z" transform="translate(-1225 -148)"/><path id="Path_339" data-name="Path 339" class="cls-2" d="M1441.77,224.19c-23.6-2.66-48.56,3.12-66.93,18.17s-29.11,39.81-25,63.2c3.45,19.45,16.5,38.12,11.84,57.32-4.42,18.23-22.89,28.86-39.62,37.36l-58.43,29.7c-6.3,3.21-13.12,6.95-15.67,13.54-2.66,6.83.14,14.55,3.89,20.87s8.53,12.21,10.28,19.33c2.24,9.09-.93,18.73-5.81,26.7s-11.45,14.78-17,22.33c-7.68,10.46-13.41,22.7-14.26,35.65s3.78,26.6,13.8,34.83c9.2,7.55,21.63,9.8,33.52,10.39,23.86,1.17,47.58-3.23,71.09-7.6l22.6-4.22c20.8-3.88,43.35-8.75,56.89-25,15.67-18.82,13.86-46.17,10.78-70.45s-6-51.22,8.22-71.15c9.3-13.06,24.87-21.16,32.26-35.38,13.54-26-6.16-58.05.2-86.67,1.8-8.1,5.65-15.6,8.06-23.55,4.27-14.14,4.72-34.53-2.6-48C1473.18,229.19,1454.47,225.62,1441.77,224.19Z" transform="translate(-1225 -148)"/><path id="Path_340" data-name="Path 340" class="cls-9" d="M1441.77,224.19c-23.6-2.66-48.56,3.12-66.93,18.17s-29.11,39.81-25,63.2c3.45,19.45,16.5,38.12,11.84,57.32-4.42,18.23-22.89,28.86-39.62,37.36l-58.43,29.7c-6.3,3.21-13.12,6.95-15.67,13.54-2.66,6.83.14,14.55,3.89,20.87s8.53,12.21,10.28,19.33c2.24,9.09-.93,18.73-5.81,26.7s-11.45,14.78-17,22.33c-7.68,10.46-13.41,22.7-14.26,35.65s3.78,26.6,13.8,34.83c9.2,7.55,21.63,9.8,33.52,10.39,23.86,1.17,47.58-3.23,71.09-7.6l22.6-4.22c20.8-3.88,43.35-8.75,56.89-25,15.67-18.82,13.86-46.17,10.78-70.45s-6-51.22,8.22-71.15c9.3-13.06,24.87-21.16,32.26-35.38,13.54-26-6.16-58.05.2-86.67,1.8-8.1,5.65-15.6,8.06-23.55,4.27-14.14,4.72-34.53-2.6-48C1473.18,229.19,1454.47,225.62,1441.77,224.19Z" transform="translate(-1225 -148)"/><path id="Path_341" data-name="Path 341" class="cls-2" d="M1493.8,401.93l42,77.07,29.1-14.94s-52.05-70.53-58.77-69.41S1493.8,401.93,1493.8,401.93Z" transform="translate(-1225 -148)"/><path id="Path_342" data-name="Path 342" class="cls-8" d="M1571.3,455.94l-9.52-28s-6.72-68.85-33-71.09,6.72,73.33,6.72,73.33,11.75,21.83,7.27,38.06S1571.3,455.94,1571.3,455.94Z" transform="translate(-1225 -148)"/><path id="Path_343" data-name="Path 343" class="cls-9" d="M1437,508.37l65.44,79.1s62.69,44.78,80,11.76c0,0,7.28-90.12-1.12-111.39s-11.19-34.7-11.19-34.7-34.7,13.43-36.94,3.92l.84,91s-39.46-145.25-77.53-127.34c-.53.25-1,.5-1.56.76C1422.41,437.63,1413.8,480.31,1437,508.37Z" transform="translate(-1225 -148)"/><path id="Path_344" data-name="Path 344" class="cls-2" d="M1439.25,506.69l65.44,79.11s62.69,44.78,80,11.75c0,0,5-90.11-3.36-111.38s-8.95-34.7-8.95-34.7-34.71,13.43-37,3.91l1.41,112.79s-40-167.08-78.09-149.17c-.53.25-1,.5-1.56.76C1424.65,436,1416,478.63,1439.25,506.69Z" transform="translate(-1225 -148)"/><circle id="Ellipse_31" data-name="Ellipse 31" class="cls-11" cx="380.18" cy="58.59" r="4.48"/><circle id="Ellipse_32" data-name="Ellipse 32" class="cls-11" cx="365.63" cy="120.72" r="2.24"/><circle id="Ellipse_33" data-name="Ellipse 33" class="cls-11" cx="281.67" cy="58.59" r="2.24"/><circle id="Ellipse_34" data-name="Ellipse 34" class="cls-11" cx="95.54" cy="149.65" r="2.24"/><circle id="Ellipse_35" data-name="Ellipse 35" class="cls-11" cx="225.14" cy="311.58" r="2.24"/><circle id="Ellipse_36" data-name="Ellipse 36" class="cls-11" cx="73.46" cy="208.59" r="2.24"/><circle id="Ellipse_37" data-name="Ellipse 37" class="cls-11" cx="462.46" cy="75.38" r="2.24"/><circle id="Ellipse_38" data-name="Ellipse 38" class="cls-11" cx="335.41" cy="166.05" r="2.24"/><circle id="Ellipse_39" data-name="Ellipse 39" class="cls-11" cx="526.83" cy="136.95" r="2.24"/><circle id="Ellipse_40" data-name="Ellipse 40" class="cls-11" cx="380.44" cy="303.57" r="2.24"/><path id="Path_345" data-name="Path 345" class="cls-11" d="M1687.46,289.88h-4.65v-4.65H1682v4.65h-4.64v.78H1682v4.64h.78v-4.64h4.65Z" transform="translate(-1225 -148)"/><path id="Path_346" data-name="Path 346" class="cls-11" d="M1454.62,567.72h-2.07v-2.07h-.34v2.07h-2.07v.34h2.07v2.07h.35v-2.07h2.06Z" transform="translate(-1225 -148)"/><path id="Path_347" data-name="Path 347" class="cls-11" d="M1547,504.47h-2.07V502.4h-.34v2.07h-2.07v.34h2.07v2.07h.35v-2.07H1547Z" transform="translate(-1225 -148)"/><path id="Path_348" data-name="Path 348" class="cls-11" d="M1684.67,375.74h-2.08v-2.08h-.33v2.08h-2.07v.34h2.07v2.06h.34v-2.06h2.07Z" transform="translate(-1225 -148)"/><path id="Path_349" data-name="Path 349" class="cls-11" d="M1590.63,408.2h-2.07v-2.07h-.34v2.07h-2.07v.34h2.07v2.07h.34v-2.07h2.07Z" transform="translate(-1225 -148)"/><path id="Path_350" data-name="Path 350" class="cls-11" d="M1324.76,373.5h-2.07v-2.08h-.33v2.08h-2.08v.34h2.08v2.06h.34v-2.06h2.07Z" transform="translate(-1225 -148)"/><path id="Path_351" data-name="Path 351" class="cls-11" d="M1549.21,242h-2.07v-2.07h-.34V242h-2.07v.34h2.07v2.07h.34V242.3h2.08Z" transform="translate(-1225 -148)"/><path id="Path_352" data-name="Path 352" class="cls-11" d="M1368.42,222.37h-2.06V220.3H1366v2.07h-2.07v.34H1366v2.07h.35v-2.07h2.06Z" transform="translate(-1225 -148)"/><path id="Path_353" data-name="Path 353" class="cls-7" d="M1621.29,227.91l-3.23,8.24v33.71h11.45V276H1636l6.09-6.09h9.33l12.55-12.55v-29.4Zm38.37,27.24-7.2,7.18H1641l-6.09,6.09v-6.09h-9.68V232.21h34.42Zm-7.2-14.7V253h-4.3V240.45Zm-11.48,0V253h-4.3V240.45Z" transform="translate(-1225 -148)"/><path id="Path_354" data-name="Path 354" class="cls-7" d="M1698.47,334.51l-9.2-3.84L1701.58,301l9.21,3.82Zm9.4-35.59a5.8,5.8,0,1,1,7.57-3.16h0a5.8,5.8,0,0,1-7.57,3.16Zm25.07,49.91-9.19-3.82,6-14.42c1.43-3.44,3.2-7.88-1.52-9.83s-7.07,1.44-8.67,5.3l-6.11,14.69-9.21-3.82,12.32-29.64,8.83,3.67-1.68,4,.13.05a10.46,10.46,0,0,1,10.7-1.16c9.31,3.87,8.48,10.71,5.17,18.68l-6.77,16.28Z" transform="translate(-1225 -148)"/><path id="Path_355" data-name="Path 355" class="cls-7" d="M1538.05,179.47a9.13,9.13,0,1,0,6.49,2.66A9.14,9.14,0,0,0,1538.05,179.47Zm0,15.11a6,6,0,1,1,6-6,5.95,5.95,0,0,1-6,6Zm11.67-15.48a2.14,2.14,0,1,1-2.14-2.14,2.14,2.14,0,0,1,2.14,2.14Zm6.06,2.16c-.14-2.86-.79-5.4-2.89-7.48s-4.62-2.74-7.48-2.88-11.79-.17-14.73,0-5.38.79-7.48,2.88-2.75,4.62-2.89,7.48-.17,11.79,0,14.73.79,5.4,2.89,7.48,4.62,2.75,7.48,2.89,11.79.16,14.73,0,5.4-.79,7.48-2.89,2.75-4.62,2.89-7.48.16-11.75,0-14.72ZM1552,199.18a6,6,0,0,1-3.39,3.39c-2.35.93-7.93.71-10.53.71s-8.18.21-10.53-.71a6,6,0,0,1-3.39-3.39c-.93-2.36-.71-7.94-.71-10.53s-.21-8.19.71-10.53a6,6,0,0,1,3.39-3.39c2.35-.94,7.93-.72,10.53-.72s8.18-.21,10.53.72a6,6,0,0,1,3.39,3.39c.94,2.35.72,7.93.72,10.53s.21,8.16-.72,10.49Z" transform="translate(-1225 -148)"/><path id="Path_356" data-name="Path 356" class="cls-7" d="M1659.48,385.53v32.86a2,2,0,0,1-2,2H1648V406.09h4.8l.71-5.6H1648v-3.56c0-1.61.45-2.71,2.76-2.71h3v-5a38.58,38.58,0,0,0-4.3-.22c-4.25,0-7.17,2.6-7.17,7.37v4.11h-4.82v5.6h4.81V420.4h-17.68a2,2,0,0,1-2-2V385.53a2,2,0,0,1,2-2h32.86A2.05,2.05,0,0,1,1659.48,385.53Z" transform="translate(-1225 -148)"/><path id="Path_357" data-name="Path 357" class="cls-7" d="M1751.64,241.15a5.88,5.88,0,0,0-3.05-5c-3.31-1.81-17.51-5.23-17.51-5.23s-14.21-3.42-18-3.32a5.9,5.9,0,0,0-5,3.08c-1.8,3.36-3.6,10.77-3.6,10.77s-1.79,7.44-1.68,11.24a5.8,5.8,0,0,0,3.06,4.94c3.31,1.81,17.51,5.23,17.51,5.23s14.21,3.42,18,3.31a5.77,5.77,0,0,0,5-3c1.81-3.35,3.6-10.77,3.6-10.77S1751.73,245,1751.64,241.15ZM1721,252.55,1724.2,239l10.25,9.61L1721,252.57Z" transform="translate(-1225 -148)"/></g></svg>