<svg id="Layer_1" data-name="Layer 1" xmlns="http://www.w3.org/2000/svg" xmlns:xlink="http://www.w3.org/1999/xlink" viewBox="0 0 598.29 439.78"><defs><style>.cls-1,.cls-5{fill:#6c63ff;}.cls-1,.cls-25,.cls-6{opacity:0.1;}.cls-1,.cls-10,.cls-16,.cls-6,.cls-9{isolation:isolate;}.cls-2{opacity:0.9;}.cls-10,.cls-3{fill:#3a3768;}.cls-4{fill:#e6e8ec;}.cls-7{fill:#ffd037;}.cls-8{fill:#a8a8a8;}.cls-9{opacity:0.2;}.cls-10{opacity:0.3;}.cls-11{fill:#fff;}.cls-12{fill:#514e7f;}.cls-13{fill:#464353;}.cls-14{fill:#a1616a;}.cls-15{fill:#fbbebe;}.cls-16,.cls-21{opacity:0.05;}.cls-17{fill:#eeb4b4;}.cls-18{fill:#3f3d56;}.cls-19{fill:url(#linear-gradient);}.cls-20{fill:#2d293d;}.cls-22{fill:#ffcdd3;}.cls-23{fill:#dce6f2;}.cls-24{fill:#575988;}</style><linearGradient id="linear-gradient" x1="0.26" y1="1079.61" x2="0.26" y2="1080.61" gradientTransform="matrix(77.34, 0, 0, -163.97, 802.36, 177753.73)" gradientUnits="userSpaceOnUse"><stop offset="0" stop-color="gray" stop-opacity="0.25"/><stop offset="0.54" stop-color="gray" stop-opacity="0.12"/><stop offset="1" stop-color="gray" stop-opacity="0.1"/></linearGradient></defs><title>background-image-second-section</title><g id="undraw_social_dashboard_k3pt" data-name="undraw social dashboard k3pt"><path id="Path_358" data-name="Path 358" class="cls-1" d="M819.21,359.78c-35.31-1.22-69-12.62-101.07-25.1s-63.92-26.29-98.42-32.9c-22.14-4.25-47.5-4.85-65.36,7-17.19,11.46-22.75,31.19-25.73,49.5-2.25,13.79-3.57,28.29,2.58,41.2,4.28,9,11.87,16.49,17.12,25.1,18.26,29.86,5.35,66.68-14.44,95.83-9.27,13.68-20,26.74-27.21,41.29S496.2,593,502.47,607.81s21,25.78,37,33.56c32.57,15.79,70.93,20.32,108.37,22.88,82.85,5.66,166.13,3.21,249.19.75,30.75-.91,61.62-1.83,91.86-6.58,16.8-2.64,34.13-6.83,46.32-16.92,15.48-12.84,19.32-34.58,8.94-50.68-17.4-27-65.48-33.71-77.65-62.7-6.69-16,.18-33.72,9.91-48.51,20.87-31.74,55.84-59.58,57.68-95.86,1.26-24.92-15.55-49.87-41.54-61.66-27.25-12.36-65-10.8-85.13,9.65C886.77,352.76,850.39,360.87,819.21,359.78Z" transform="translate(-469 -299)"/><g id="Group_75" data-name="Group 75" class="cls-2"><rect id="Rectangle_10" data-name="Rectangle 10" class="cls-3" x="386.5" y="135.75" width="4.83" height="39.84" rx="2.29"/><path id="Rectangle_11" data-name="Rectangle 11" class="cls-3" d="M696.2,403.54h0a1.36,1.36,0,0,1,1.35,1.35V415.3a1.35,1.35,0,0,1-1.35,1.35h0a1.35,1.35,0,0,1-1.36-1.35V404.89A1.36,1.36,0,0,1,696.2,403.54Z" transform="translate(-469 -299)"/><path id="Rectangle_12" data-name="Rectangle 12" class="cls-3" d="M696.27,427.55h0a1.54,1.54,0,0,1,1.53,1.53v19.77a1.53,1.53,0,0,1-1.53,1.53h0a1.53,1.53,0,0,1-1.53-1.53V429.08A1.54,1.54,0,0,1,696.27,427.55Z" transform="translate(-469 -299)"/><path id="Rectangle_13" data-name="Rectangle 13" class="cls-3" d="M696.25,458.37h0a1.45,1.45,0,0,1,1.45,1.45v20.12a1.45,1.45,0,0,1-1.45,1.46h0a1.46,1.46,0,0,1-1.46-1.46V459.82A1.45,1.45,0,0,1,696.25,458.37Z" transform="translate(-469 -299)"/><rect id="Rectangle_14" data-name="Rectangle 14" class="cls-3" x="227.38" y="61.19" width="161.73" height="328.7" rx="20"/><path id="Rectangle_15" data-name="Rectangle 15" class="cls-4" d="M763.93,370h18a2.29,2.29,0,0,1,2.29,2.29h0a2.28,2.28,0,0,1-2.29,2.29h-18a2.29,2.29,0,0,1-2.29-2.29h0A2.3,2.3,0,0,1,763.93,370Z" transform="translate(-469 -299)"/><circle id="Ellipse_41" data-name="Ellipse 41" class="cls-4" cx="321.24" cy="73.3" r="2.6"/></g><ellipse id="Ellipse_42" data-name="Ellipse 42" class="cls-1" cx="129.89" cy="397.45" rx="109.11" ry="11.12"/><ellipse id="Ellipse_43" data-name="Ellipse 43" class="cls-1" cx="372.51" cy="434.57" rx="51.12" ry="5.21"/><ellipse id="Ellipse_44" data-name="Ellipse 44" class="cls-1" cx="547.17" cy="408.32" rx="51.12" ry="5.21"/><path id="Path_359" data-name="Path 359" class="cls-5" d="M835.26,368.75h-18.5V371a10.58,10.58,0,0,1-10.58,10.57h-59A10.57,10.57,0,0,1,736.58,371h0v-2.23H719.21a12.84,12.84,0,0,0-12.84,12.84h0V667.47a12.84,12.84,0,0,0,12.83,12.85H835.26a12.84,12.84,0,0,0,12.84-12.85V381.59A12.84,12.84,0,0,0,835.26,368.75Z" transform="translate(-469 -299)"/><path id="Path_360" data-name="Path 360" class="cls-5" d="M914.1,345.77s-45.94-2.77-40.53,29.42c0,0-1.09,5.69,4.09,8.27,0,0,.08-2.38,4.7-1.57a20.93,20.93,0,0,0,5,.24,10.36,10.36,0,0,0,6.1-2.52h0s12.91-5.33,17.94-26.44c0,0,3.72-4.6,3.57-5.79l-7.76,3.31s2.65,5.59.55,10.24c0,0-.25-10-1.74-9.82-.31,0-4,1.94-4,1.94s4.56,9.74,1.09,16.82c0,0,1.3-12-2.55-16.12l-5.45,3.19s5.32,10.06,1.72,18.27c0,0,.92-12.59-2.87-17.5L889,361.57s5,9.91,2,16.72c0,0-.4-14.65-3-15.76,0,0-4.32,3.82-5,5.38,0,0,3.42,7.2,1.3,11,0,0-1.3-9.77-2.38-9.82,0,0-4.31,6.47-4.76,10.91,0,0,.19-6.6,3.71-11.52,0,0-4.16.71-6.59,3.41,0,0,.67-4.57,7.63-5,0,0,3.57-4.92,4.52-5.21,0,0-7-.58-11.17,1.29,0,0,3.71-4.32,12.45-2.35l4.88-4s-9.16-1.25-13,.13c0,0,4.47-3.82,14.36-1l5.31-3.18s-7.8-1.68-12.46-1.09c0,0,4.91-2.64,14,.23l3.82-1.71s-5.73-1.12-7.4-1.3-1.76-.64-1.76-.64a19.92,19.92,0,0,1,10.82,1.23S914.24,346.28,914.1,345.77Z" transform="translate(-469 -299)"/><path id="Path_361" data-name="Path 361" class="cls-5" d="M867,331.45s-20.74-1.25-18.31,13.3a3.54,3.54,0,0,0,1.84,3.74s0-1.09,2.13-.71a9.41,9.41,0,0,0,2.25.1,4.62,4.62,0,0,0,2.76-1.13h0s5.83-2.41,8.1-11.95c0,0,1.68-2.08,1.64-2.61l-3.5,1.5a6.28,6.28,0,0,1,.25,4.62s-.11-4.53-.79-4.43c-.13,0-1.81.88-1.81.88s2.05,4.4.5,7.6c0,0,.58-5.42-1.15-7.28l-2.47,1.44s2.41,4.54.78,8.25c0,0,.42-5.69-1.29-7.9l-2.24,1.74s2.26,4.48.88,7.56c0,0-.18-6.63-1.36-7.13a13.75,13.75,0,0,0-2.26,2.44s1.55,3.27.59,5c0,0-.59-4.42-1.09-4.44,0,0-1.95,2.93-2.15,4.91a10.59,10.59,0,0,1,1.67-5.2,5.87,5.87,0,0,0-3,1.54s.3-2.07,3.46-2.25a13.88,13.88,0,0,1,2-2.35,12.66,12.66,0,0,0-5,.58s1.67-1.95,5.62-1.09l2.19-1.8s-4.14-.55-5.9.06c0,0,2-1.73,6.49-.47l2.4-1.44a22.19,22.19,0,0,0-5.63-.48s2.22-1.2,6.33.1l1.72-.77s-2.58-.51-3.34-.59-.8-.29-.8-.29a9,9,0,0,1,4.86.55S867,331.68,867,331.45Z" transform="translate(-469 -299)"/><ellipse id="Ellipse_45" data-name="Ellipse 45" class="cls-5" cx="21.94" cy="370.27" rx="21.94" ry="3.71"/><path id="Path_362" data-name="Path 362" class="cls-5" d="M500,663.19a6.34,6.34,0,0,0,2.1-3.15,2.84,2.84,0,0,0-1.46-3.22c-1.34-.51-2.78.42-3.86,1.36s-2.34,2-3.76,1.81a5.74,5.74,0,0,0,1.75-5.35,2.17,2.17,0,0,0-.49-1.09c-.75-.8-2.1-.46-3,.17-2.84,2-3.63,5.85-3.64,9.32a17.43,17.43,0,0,1-.06-3.82,3.94,3.94,0,0,0-1.44-3.39,4.36,4.36,0,0,0-2.18-.52,4.56,4.56,0,0,0-3.57,1c-1.09,1.16-.8,3.1.14,4.37a14.48,14.48,0,0,0,3.69,3,8,8,0,0,1,2.64,2.51,2.28,2.28,0,0,1,.2.45h8A22.06,22.06,0,0,0,500,663.19Z" transform="translate(-469 -299)"/><path id="Path_363" data-name="Path 363" class="cls-5" d="M922.2,617.4s4.72,6.18-2.18,15.5-12.59,17.19-10.28,23c0,0,10.41-17.31,18.88-17.55S931.52,627.81,922.2,617.4Z" transform="translate(-469 -299)"/><path id="Path_364" data-name="Path 364" class="cls-6" d="M922.2,617.4a7.83,7.83,0,0,1,1,1.94c8.27,9.71,12.67,18.78,4.72,19-7.4.22-16.28,13.45-18.4,16.79a6.91,6.91,0,0,0,.25.77s10.41-17.31,18.88-17.56S931.52,627.81,922.2,617.4Z" transform="translate(-469 -299)"/><path id="Path_365" data-name="Path 365" class="cls-7" d="M931,625.29c0,2.18-.25,3.94-.55,3.94s-.55-1.77-.55-3.94.31-1.15.61-1.15S931,623.11,931,625.29Z" transform="translate(-469 -299)"/><path id="Path_366" data-name="Path 366" class="cls-7" d="M934,627.87c-1.91,1-3.57,1.67-3.72,1.4s1.29-1.32,3.2-2.37,1.15-.27,1.3,0S935.9,626.82,934,627.87Z" transform="translate(-469 -299)"/><path id="Path_367" data-name="Path 367" class="cls-5" d="M897.27,617.4s-4.72,6.18,2.18,15.5,12.59,17.19,10.29,23c0,0-10.41-17.31-18.89-17.55S888,627.81,897.27,617.4Z" transform="translate(-469 -299)"/><path id="Path_368" data-name="Path 368" class="cls-6" d="M897.27,617.4a7.5,7.5,0,0,0-1,1.94c-8.26,9.71-12.67,18.78-4.72,19,7.4.22,16.28,13.45,18.41,16.79-.07.26-.16.52-.25.77,0,0-10.42-17.31-18.89-17.56S888,627.81,897.27,617.4Z" transform="translate(-469 -299)"/><path id="Path_369" data-name="Path 369" class="cls-7" d="M888.49,625.29c0,2.18.24,3.94.54,3.94s.55-1.77.55-3.94-.31-1.15-.61-1.15S888.49,623.11,888.49,625.29Z" transform="translate(-469 -299)"/><path id="Path_370" data-name="Path 370" class="cls-7" d="M885.46,627.87c1.9,1,3.57,1.67,3.71,1.4S887.89,628,886,626.9s-1.16-.27-1.3,0S883.57,626.82,885.46,627.87Z" transform="translate(-469 -299)"/><path id="Path_371" data-name="Path 371" class="cls-8" d="M890,655.09s13.2-.41,17.18-3.24,20.3-6.22,21.28-1.67,19.84,22.6,4.91,22.71-34.63-2.32-38.59-4.74S890,655.09,890,655.09Z" transform="translate(-469 -299)"/><path id="Path_372" data-name="Path 372" class="cls-9" d="M933.66,671.31c-14.9.12-34.62-2.32-38.59-4.74-3-1.84-4.23-8.45-4.63-11.5H890s.84,10.65,4.81,13.06,23.69,4.86,38.59,4.74c4.3,0,5.79-1.56,5.71-3.82C938.5,670.43,936.87,671.28,933.66,671.31Z" transform="translate(-469 -299)"/><rect id="Rectangle_16" data-name="Rectangle 16" class="cls-10" x="318.95" y="266.21" width="42.58" height="42.58"/><rect id="Rectangle_17" data-name="Rectangle 17" class="cls-10" x="256.2" y="210.01" width="42.58" height="42.58"/><rect id="Rectangle_18" data-name="Rectangle 18" class="cls-10" x="260.29" y="321.45" width="42.58" height="42.58"/><rect id="Rectangle_19" data-name="Rectangle 19" class="cls-11" x="250.79" y="105.47" width="42.58" height="42.58"/><rect id="Rectangle_20" data-name="Rectangle 20" class="cls-11" x="799.2" y="558.64" width="42.59" height="42.59" transform="translate(-646.05 401.13) rotate(-42.12)"/><rect id="Rectangle_21" data-name="Rectangle 21" class="cls-11" x="318.25" y="156.77" width="42.58" height="42.58"/><rect id="Rectangle_22" data-name="Rectangle 22" class="cls-11" x="264.42" y="204.25" width="42.58" height="42.58"/><path id="Path_373" data-name="Path 373" class="cls-5" d="M999.29,698.74a16.61,16.61,0,0,0,7.42-.25c.36-.11.78-.36.74-.74a.92.92,0,0,0-.17-.36,23,23,0,0,1-2.26-4.27.25.25,0,0,0-.37-.19c-1.09.28-2,1-3.14,1.29a4.43,4.43,0,0,1-1.7.13c-.49-.05-1.16-.46-1.6-.41C998.47,695.55,999.1,697.09,999.29,698.74Z" transform="translate(-469 -299)"/><path id="Path_374" data-name="Path 374" class="cls-5" d="M1046.17,694.59a12.76,12.76,0,0,0,4.3-4,.61.61,0,0,0,.11-.35.64.64,0,0,0-.13-.33,14.09,14.09,0,0,0-3.49-3.77,10.1,10.1,0,0,0-2,1.8c-.41.43-1.54,1.14-1.55,1.78,0,.39.43.81.63,1.1s.54.81.78,1.23A20,20,0,0,1,1046.17,694.59Z" transform="translate(-469 -299)"/><path id="Path_375" data-name="Path 375" class="cls-12" d="M1009,703.75a1.63,1.63,0,0,1-.3,1.09,1.51,1.51,0,0,1-.62.37c-3.47,1.24-7.47-.31-10.92.92-.71.25-1.38.61-2.1.85a11.34,11.34,0,0,1-2.6.46c-1.22.12-2.45.19-3.68.22a8.6,8.6,0,0,1-2.77-.24,3.34,3.34,0,0,1-2.13-1.68,1.66,1.66,0,0,1-.1-1.2,1.29,1.29,0,0,1,.23-.39,3.45,3.45,0,0,1,.81-.66l1.28-.82a8.54,8.54,0,0,1,1.93-1c.5-.16,1-.23,1.55-.38A10.76,10.76,0,0,0,994,698l1.74-1.85a1.35,1.35,0,0,1,1.34-.56,10,10,0,0,1,4.73,1.59,6.91,6.91,0,0,0,1.17.69,4.16,4.16,0,0,0,3.27-.41c.45-.23.35-.38.55-.8s.64-.69,1-.3a1.11,1.11,0,0,1,.24.47,13.09,13.09,0,0,1,.24,3.85,1.71,1.71,0,0,0,.07.6,3.38,3.38,0,0,0,.34.55l.07.14A3.81,3.81,0,0,1,1009,703.75Z" transform="translate(-469 -299)"/><path id="Path_376" data-name="Path 376" class="cls-13" d="M1009,703.75a1.63,1.63,0,0,1-.3,1.09,1.51,1.51,0,0,1-.62.37c-3.47,1.24-7.47-.31-10.92.92-.71.25-1.38.61-2.1.85a11.34,11.34,0,0,1-2.6.46c-1.22.12-2.45.19-3.68.22a8.6,8.6,0,0,1-2.77-.24,3.34,3.34,0,0,1-2.13-1.68,1.66,1.66,0,0,1-.1-1.2,1.29,1.29,0,0,1,.23-.39c.2.43.35,1,.48,1.18a2.41,2.41,0,0,0,1.63,1.18,4.37,4.37,0,0,0,1.48-.19c3.14-.78,6.48-.79,9.5-2a21.26,21.26,0,0,1,3.11-1.2,23.54,23.54,0,0,1,3.36-.27c1.77-.14,3.48-.68,5.23-1a3.69,3.69,0,0,1,.2,1.83Z" transform="translate(-469 -299)"/><path id="Path_377" data-name="Path 377" class="cls-12" d="M1054.1,694.38a6.29,6.29,0,0,1-1.92,3.41,21.21,21.21,0,0,0-2.67,2.93c-.91,1.37-1.3,3.07-2.47,4.23a6.87,6.87,0,0,1-1.49,1.09,9.79,9.79,0,0,1-1.92.88,14.56,14.56,0,0,1-5.46.3,4.88,4.88,0,0,1-1.73-.33,5.51,5.51,0,0,1-.73-.45,3.47,3.47,0,0,1-1.09-1.13,1.13,1.13,0,0,1-.1-.81,1.92,1.92,0,0,1,.55-.8,13.29,13.29,0,0,1,1.31-1.18,7.74,7.74,0,0,0,1.72-1.51,5.16,5.16,0,0,0,.66-1.5,14,14,0,0,0,.48-2.87,8.79,8.79,0,0,1,.2-1.91c.28-1,1-1.88.92-2.9a.71.71,0,0,1,0-.43.69.69,0,0,1,.34-.22,6.55,6.55,0,0,1,1.79-.41,2.09,2.09,0,0,1,1.64.65c.25.31.42.73.8.87a1.23,1.23,0,0,0,.54,0,4.61,4.61,0,0,0,2.6-.8,3.3,3.3,0,0,0,1.1-2.38c0-.34-.16-.7.36-.77s.71.36.91.64a8.67,8.67,0,0,1,1.75,3.19.8.8,0,0,1,.34-.07,1.44,1.44,0,0,1,1.19.61,2.36,2.36,0,0,1,.34,1.66Z" transform="translate(-469 -299)"/><path id="Path_378" data-name="Path 378" class="cls-13" d="M1054.1,694.38a6.29,6.29,0,0,1-1.92,3.41,21.21,21.21,0,0,0-2.67,2.93c-.91,1.37-1.3,3.07-2.47,4.23a6.87,6.87,0,0,1-1.49,1.09,9.79,9.79,0,0,1-1.92.88,14.56,14.56,0,0,1-5.46.3,4.82,4.82,0,0,1-1.72-.33,5.62,5.62,0,0,1-.74-.45,3.47,3.47,0,0,1-1.09-1.13,2.6,2.6,0,0,1,1.13-.26c.81,0,1.4.81,2.18,1,1.09.33,2.18-.45,3.32-.72.73-.16,1.51-.12,2.22-.35a5.49,5.49,0,0,0,1.64-1,8.54,8.54,0,0,0,1.75-1.7,10.36,10.36,0,0,0,1-2.05,30.74,30.74,0,0,1,2.08-4,2.49,2.49,0,0,1,.43-.54c.16-.16.38-.27.54-.42a4.31,4.31,0,0,0,1.32-2.4,3.66,3.66,0,0,1,.3-.8,1.42,1.42,0,0,1,1.19.61A2.39,2.39,0,0,1,1054.1,694.38Z" transform="translate(-469 -299)"/><path id="Path_379" data-name="Path 379" class="cls-14" d="M975.71,577.82a8,8,0,0,1,2.23,2.6c.54,1,3.54,9,3.36,10.13,1-1,4.88-1.16,5.86-2.14.41-.42,2.65-2.49,3-3s2.83-1.51,3.1-2c1-1.83-7.24-8.73-6.18-10.56a.44.44,0,0,0,.08-.29.5.5,0,0,0-.13-.22,13.28,13.28,0,0,0-2.39-1.63,3.85,3.85,0,0,1-1.83-2.19,8.18,8.18,0,0,0-2.11,1.43c-1.51,1.3-3,2.62-4.46,4-.58.54-1.68,1.23-2,2S975.16,577.37,975.71,577.82Z" transform="translate(-469 -299)"/><path id="Path_380" data-name="Path 380" class="cls-12" d="M989.07,574.88a23.93,23.93,0,0,0-3.53,2.89,7.06,7.06,0,0,0-2.26,3.61c-.1.54-.08,1.12-.17,1.68-.37,2.45-2.49,4.24-3.42,6.55a10.53,10.53,0,0,0-.6,2.18,25.78,25.78,0,0,0-.43,4.29c0,1.4,1.34,2.36,1.85,3.66a23.49,23.49,0,0,1,.89,4,47.73,47.73,0,0,0,2.23,7.37c1.84,5.09,7.82,19.17,9.66,24.26,5.65-1.42,20.69-4.68,25.69-7.64,1.67-1-11.57-12.21-9.79-13a1,1,0,0,0,.5-.38.86.86,0,0,0,0-.55c-1.78-7.8-7.36-14.18-9.89-21.82-.88-2.64-2.45-4.89-3.65-7.4-1.09-2.27-1.67-4.77-3-6.93a4.89,4.89,0,0,0-.94-1.18,5.62,5.62,0,0,0-1-.63C990.48,575.45,989.79,575.24,989.07,574.88Z" transform="translate(-469 -299)"/><circle id="Ellipse_46" data-name="Ellipse 46" class="cls-14" cx="507.01" cy="269.09" r="8.84"/><path id="Path_381" data-name="Path 381" class="cls-13" d="M985,572.24a3,3,0,0,1,3.32-.47,1.62,1.62,0,0,1,1,1.59l4.37.07a8.58,8.58,0,0,1,2.08.19,3,3,0,0,1,1.73,1.09.46.46,0,0,0,.2.17.48.48,0,0,0,.2-.07,3.84,3.84,0,0,1,2.18-.4,11.85,11.85,0,0,1,6.42,2.82,2.14,2.14,0,0,1,.77.94c.15.5,0,1.13.36,1.47,0,4.12,1.41,8,2.35,12a5.36,5.36,0,0,0,1.33,1.9,7.53,7.53,0,0,1,1.42,2.11c.8,2.08-.31,4.52.47,6.61a10.77,10.77,0,0,0,1.51,2.38,6.13,6.13,0,0,1,1.28,3.06c0,.5,0,1,0,1.51a9.55,9.55,0,0,0,.36,2c.32,1.21.66,2.41,1,3.61.55,1.94,1.31,4,3,5.08-4.21.72-8.64,1.41-12.65-.05a6.42,6.42,0,0,1-1.57-.79c-1.45-1-2.15-2.8-2.77-4.46a21,21,0,0,1-1.55-5.76,7.07,7.07,0,0,0-.26-1.89,5.28,5.28,0,0,0-2.49-2.34,11.78,11.78,0,0,1-3-2.32,4.63,4.63,0,0,1-1.21-3.49c.07-.62.31-1.21.34-1.84a1.47,1.47,0,0,0-.85-1.51c-3.06-.93-4.52-4.55-5.2-7.67a24.57,24.57,0,0,1-.4-4.92l0-3.15a4.21,4.21,0,0,1-1.37-3,3.35,3.35,0,0,0,0-1,2.8,2.8,0,0,0-.7-1.09A9.16,9.16,0,0,1,985,572.24Z" transform="translate(-469 -299)"/><path id="Path_382" data-name="Path 382" class="cls-13" d="M975.58,582.35a22.62,22.62,0,0,1-.1,3c-.08.37-.23.73-.34,1.09a6.4,6.4,0,0,0,.41,4.16,22.81,22.81,0,0,0,2.12,3.68,5.61,5.61,0,0,1,.68,1.28,6.51,6.51,0,0,1,.27,1.45,43.05,43.05,0,0,0,1,5.86,11.35,11.35,0,0,0,2.07,4.71,1.42,1.42,0,0,0,.85.58,1.61,1.61,0,0,0,.72-.16l2.26-.85a1.61,1.61,0,0,0,.55-.29,1.42,1.42,0,0,0,.32-.88,13,13,0,0,0-1-5.36c-1.83-5.2-4.26-10.21-5.45-15.6-.34-1.51-.51-3.82-1.6-5-.46-.5-.3-.29-.84,0a6.09,6.09,0,0,0-.8.42A2.58,2.58,0,0,0,975.58,582.35Z" transform="translate(-469 -299)"/><path id="Path_383" data-name="Path 383" class="cls-13" d="M1018.73,614.75" transform="translate(-469 -299)"/><path id="Path_384" data-name="Path 384" class="cls-5" d="M982.4,592.23c.6,3.18,1.21,6.35,1.84,9.53l8.77-2.3a6.06,6.06,0,0,0-.76-2.62c-.8-2-.82-4.24-1.47-6.3-.49-1.57-1.34-3-1.8-4.6-.26-.92-.4-1.88-.65-2.8a21.69,21.69,0,0,0-1-2.67,16.42,16.42,0,0,0-1.91-3.55,5.58,5.58,0,0,0-3,1.91,4.08,4.08,0,0,0-.54,1.89c-.16,2,.54,4,.32,5.91a17.25,17.25,0,0,0,.2,5.6Z" transform="translate(-469 -299)"/><path id="Path_385" data-name="Path 385" class="cls-13" d="M993.15,634.57c.5,1.87-.22,3.82-.8,5.68a45.56,45.56,0,0,0-1.79,8.56,7.11,7.11,0,0,1-.44,2.19,19.22,19.22,0,0,1-1.06,1.74,8.73,8.73,0,0,0-.67,5.26c.12,1.18.31,2.35.54,3.51a8.75,8.75,0,0,1,.23,4.28c.69-.15,1.17.74,1.14,1.46s-.28,1.48.06,2.1c.86.31.88,1.5.85,2.41a20.19,20.19,0,0,0,.59,4.71q2,9.39,4.15,18.71c3.16,1,6.85,2,9.86.65a1.94,1.94,0,0,0,1.25-1.26,2.23,2.23,0,0,0-.12-1l-1.43-5.2a9.51,9.51,0,0,1-.51-3.82c.14-1,.54-2,.08-2.85a7.58,7.58,0,0,0-.6-.8c-.75-1.09-.36-2.56-.29-3.89a3,3,0,0,0-.07-.89,4.19,4.19,0,0,0-.42-1,14.94,14.94,0,0,1-1.63-7.43,1.91,1.91,0,0,0-.13-1,1.58,1.58,0,0,1-.24-.39,1,1,0,0,1,.07-.71,6.3,6.3,0,0,1-1.15-1.1,1.63,1.63,0,0,0,.48-2.26,1.71,1.71,0,0,0-.21-.26.82.82,0,0,0,.66-1,.77.77,0,0,0-.26-.46c-.18-.13-.42-.19-.54-.37s0-.66.12-1l.88-1.58c.65-1.16.8-2.61,1.5-3.75a28.83,28.83,0,0,0,2.3-5.25l2.48-6.93,1.7,1.46a5.3,5.3,0,0,1,1.39,1.59,6.93,6.93,0,0,1,.45,1.9c.62,3.77,3,7,3.87,10.75a7.08,7.08,0,0,0,.8,2.4,5.4,5.4,0,0,1,.46.68,3.73,3.73,0,0,1,.19,1.14,5.27,5.27,0,0,0,2.24,3.82c.83.55,1.88,1,2.32,1.88a3.45,3.45,0,0,0,.38.8c.4.48,1.28.54,1.45,1.15.1.34-.08.74.11,1a1,1,0,0,0,.41.31l2.44,1.22c2.73,1.36,4.1,4.48,6.12,6.76a14.32,14.32,0,0,1,1.82,2.42c.87,1.55,1.28,3.5,2.73,4.5a4.58,4.58,0,0,1,1.06.79c.46.61.3,1.46.33,2.22s.63,1.67,1.36,1.44a5.2,5.2,0,0,0,0,2.82,14.18,14.18,0,0,0,8.62-3.49,3.43,3.43,0,0,0,1.4-2.35,1,1,0,0,0-.1-.47,1.27,1.27,0,0,0-.55-.42c-2.27-1.23-3-4.09-4.1-6.41a53.11,53.11,0,0,0-3.75-5.72c-2.73-4.09-4.55-9-8.65-11.75a5.8,5.8,0,0,1-2.4-2.1c-.19-.58-.35-1.16-.48-1.75a1.47,1.47,0,0,0-1.28-1.09,7.64,7.64,0,0,0,.29-2.73,3.29,3.29,0,0,0-.13-1.17,6.06,6.06,0,0,0-.6-1.16,11.17,11.17,0,0,1-1.55-6,9.42,9.42,0,0,0-.1-3.22,14.6,14.6,0,0,0-.65-1.51,9.56,9.56,0,0,1-.46-2.81l-.23-3.6a17.61,17.61,0,0,0-.46-3.55c-.76-2.79-1.49-14.47-4.06-15.79s-6.95,7.67-9.82,7.85a13.32,13.32,0,0,0-3.75.72,18.37,18.37,0,0,0-5.09,3.38l-5.3,4.45a19.67,19.67,0,0,1-3.29,2.38Z" transform="translate(-469 -299)"/><path id="Path_386" data-name="Path 386" class="cls-13" d="M967.71,558.27a6.69,6.69,0,0,1,5.15-2.51,12,12,0,0,1,5.68,1.43,7.14,7.14,0,0,0,1.64.69c.94.19,2-.07,2.82.38,1.12.59,1.34,2.11,1.24,3.38s-.33,2.65.34,3.73c.23.32.45.64.65,1a3.33,3.33,0,0,1-.06,2.07,14.65,14.65,0,0,1-1.1-1.37,1.27,1.27,0,0,0-1.54-.4c-.48.33-.48.92-.5,1.45s-.16,1.17-.67,1.34a1.09,1.09,0,0,1-1.09-.44c-.85-1-.51-2.72-1.36-3.77-.48-.6-1.28-.89-1.73-1.52s-.44-1.13-.74-1.64-1-.92-1.5-.54a2.1,2.1,0,0,0-.4.54,2.3,2.3,0,0,1-2.73.82,4.71,4.71,0,0,0-1.18-.5,1.43,1.43,0,0,0-1.35.73,2.9,2.9,0,0,0-.36,1.56,3.66,3.66,0,0,1-.29,2.14,2.25,2.25,0,0,1-.64.55,1.87,1.87,0,0,1-2.07.21,1.57,1.57,0,0,1-.46-1.45,11.62,11.62,0,0,1,.44-1.53c.33-1.16-.1-2.46.26-3.56A11.11,11.11,0,0,1,967.71,558.27Z" transform="translate(-469 -299)"/><path id="Path_387" data-name="Path 387" class="cls-5" d="M972.45,584.64a1,1,0,0,0,.52,1.24,9.09,9.09,0,0,0,4.17,1.35,1.33,1.33,0,0,1,.55.15,1,1,0,0,1,.24,1.16,3.09,3.09,0,0,0-.26,1.23c.11.78,1,1.14,1.82,1.24a4.24,4.24,0,0,0,3.16-.61,4.89,4.89,0,0,0,1.3-2c2.14-4.91,2.9-10.37,5.07-15.28a2.83,2.83,0,0,0,.32-1,1,1,0,0,0-.4-.95c-.4-.25-1-.1-1.3-.5-.13-.2-.12-.46-.24-.67-.25-.45-.9-.4-1.35-.64s-.6-.54-1-.64a1.21,1.21,0,0,0-1,.44,13.09,13.09,0,0,0-2.65,4.47,53.77,53.77,0,0,1-3.82,7,4.09,4.09,0,0,0-1.19-2.33c-.67-.14-1.53,1-1.89,1.48a9.34,9.34,0,0,0-2,4.8Z" transform="translate(-469 -299)"/><rect id="Rectangle_23" data-name="Rectangle 23" class="cls-11" x="507.91" y="292.63" width="42.58" height="42.58"/><path id="Path_388" data-name="Path 388" class="cls-14" d="M1019.14,615.08a18.41,18.41,0,0,0-2,2.12,4.27,4.27,0,0,0-.92,2.73,1.36,1.36,0,0,0,.26.8.69.69,0,0,0,.76.23,1.06,1.06,0,0,0,.37-.33,16.11,16.11,0,0,1,1.25-1.36c.17-.16.37-.33.59-.27a.56.56,0,0,1,.26.17,1.62,1.62,0,0,1,.54.82,2,2,0,0,1-.57,1.59,4.09,4.09,0,0,0-1,1.45.61.61,0,0,0,0,.46.71.71,0,0,0,.29.25,4.2,4.2,0,0,0,3.53.23c.76-.3,1.41-.82,2.18-1.09a5.66,5.66,0,0,0,1-.36,2,2,0,0,0,.85-1.28,5.23,5.23,0,0,0,.06-1.58,17.84,17.84,0,0,0-1.31-5.94.64.64,0,0,0-.21-.32.78.78,0,0,0-.36-.1c-1-.1-2.53-.59-3.45-.23a2.25,2.25,0,0,0-.81.72C1020.2,614,1019.14,614.83,1019.14,615.08Z" transform="translate(-469 -299)"/><path id="Path_389" data-name="Path 389" class="cls-13" d="M1018.82,614.24c0-.92-1.14-3.12.66-3.28,0-1-1.38-1.58-1.13-2.6.08-.35.36-.63.41-1,.11-1-1.69-1.54-1.39-2.5.1-.37.5-.59.59-1,.2-.86-1.34-1.25-1.37-2.13,0-.3.16-.59.15-.88s-.32-.66-.5-1c-.47-.84-.24-2.13-1.09-2.56.54,0,.75-.79.51-1.3s-.71-1-.71-1.52a2.22,2.22,0,0,0,0-.63c-.15-.54-1.05-.58-1.2-1.13,0-.2,0-.41,0-.61,0-.43-.49-.69-.9-.82a3.73,3.73,0,0,1-1.2-.42c-.26-.2-.54-.55-.84-.36a1.25,1.25,0,0,0-.24.27c-.33.39-1,.22-1.4-.07a5.75,5.75,0,0,1-2.14-3.85c-.27-1.48-.26-3-.58-4.49a12.16,12.16,0,0,0-.4-1.34,7.83,7.83,0,0,1-.64-1.34c-.06-.86,1.72-.28,2.39-.19a10,10,0,0,1,2,.37,21.54,21.54,0,0,1,2,.86c2.72,1.2,5.95,1.35,8.13,3.35a6.78,6.78,0,0,0,2.23,1.82,10.56,10.56,0,0,1,1.26.32c1,.49,1.19,1.85,1.75,2.84a6,6,0,0,1,.46.82,3.11,3.11,0,0,1,.15,1l.08,2.59a97.42,97.42,0,0,1-.21,13,10.67,10.67,0,0,0,.05,4.25c.11.37.26.73.36,1.09a7.73,7.73,0,0,1,.14,1.35l.06,1.68a.41.41,0,0,1-.25.51.42.42,0,0,1-.29,0c-2.34-.21-4.69-1.53-6.9-.73" transform="translate(-469 -299)"/><path id="Path_390" data-name="Path 390" class="cls-14" d="M975.31,607.4a.64.64,0,0,0-.27.22,1.88,1.88,0,0,0,0,2.21.71.71,0,0,1,.13.22.59.59,0,0,1-.06.37,1.23,1.23,0,0,0,.17,1.38c.17.14.4.21.5.4s-.07.72,0,1.09.63.72,1.09.78a1.17,1.17,0,0,0,1.07-.28.9.9,0,0,0,0-1,2.74,2.74,0,0,0-.72-.72,1.1,1.1,0,0,0,1-1,1.57,1.57,0,0,0-.62-1.36c-.1-.08-.22-.16-.25-.29s.1-.31.22-.44c.55-.54,1-1.88-.06-2.18a2.51,2.51,0,0,0-1.09,0c-.26.08-.26.24-.46.35S975.54,607.28,975.31,607.4Z" transform="translate(-469 -299)"/><path id="Path_391" data-name="Path 391" class="cls-6" d="M986,569.71a1.79,1.79,0,0,0-1.39.7,4.06,4.06,0,0,0-.58,1.86,16.16,16.16,0,0,1-2.18,5.92" transform="translate(-469 -299)"/><path id="Path_392" data-name="Path 392" class="cls-6" d="M987.94,571.21a2.09,2.09,0,0,0-1.81,1.09,5.91,5.91,0,0,0-.46,1.85,10,10,0,0,1-1.82,3.88" transform="translate(-469 -299)"/><path id="Path_393" data-name="Path 393" class="cls-15" d="M635.91,606c.32,3.45-2.29,6.79-1.53,10.16.17.72.48,1.4.59,2.13.31,2-.88,3.9-2,5.57l-9.79,14.38a9.73,9.73,0,0,1-1.4,1.73c-1.88,1.63-4.68,1.49-7.15,2a12.47,12.47,0,0,0-4.78,2.12.31.31,0,0,0-.06.43,4.13,4.13,0,0,0,3.56,1.67c.25.34,0,.84-.36,1.09-.54.37-1.25.46-1.35,1.35a1.48,1.48,0,0,0,.18.9,2.79,2.79,0,0,0,1.71,1.19c3.39,1,7.06-.78,9.59-3.28s4.36-5.6,6.85-8.13c1.38-1.39,2.95-2.59,4.37-3.94a50.38,50.38,0,0,0,7.16-9.28,10.28,10.28,0,0,0,1.55-3.15c.26-1.12.14-2.31.45-3.42a12.4,12.4,0,0,1,2.34-3.82,12.69,12.69,0,0,0,2.67-8.27,7.93,7.93,0,0,0-4.83-6.86,4.33,4.33,0,0,0-2.73-.17,6.58,6.58,0,0,0-2.76,2.19l-1.86,2.15a4.86,4.86,0,0,0-1.09,1.63,1.74,1.74,0,0,0,.38,1.83" transform="translate(-469 -299)"/><path id="Path_394" data-name="Path 394" class="cls-16" d="M635.91,606c.32,3.45-2.29,6.79-1.53,10.16.17.72.48,1.4.59,2.13.31,2-.88,3.9-2,5.57l-9.79,14.38a9.73,9.73,0,0,1-1.4,1.73c-1.88,1.63-4.68,1.49-7.15,2a12.47,12.47,0,0,0-4.78,2.12.31.31,0,0,0-.06.43,4.13,4.13,0,0,0,3.56,1.67c.25.34,0,.84-.36,1.09-.54.37-1.25.46-1.35,1.35a1.48,1.48,0,0,0,.18.9,2.79,2.79,0,0,0,1.71,1.19c3.39,1,7.06-.78,9.59-3.28s4.36-5.6,6.85-8.13c1.38-1.39,2.95-2.59,4.37-3.94a50.38,50.38,0,0,0,7.16-9.28,10.28,10.28,0,0,0,1.55-3.15c.26-1.12.14-2.31.45-3.42a12.4,12.4,0,0,1,2.34-3.82,12.69,12.69,0,0,0,2.67-8.27,7.93,7.93,0,0,0-4.83-6.86,4.33,4.33,0,0,0-2.73-.17,6.58,6.58,0,0,0-2.76,2.19l-1.86,2.15a4.86,4.86,0,0,0-1.09,1.63,1.74,1.74,0,0,0,.38,1.83" transform="translate(-469 -299)"/><path id="Path_395" data-name="Path 395" class="cls-17" d="M561.34,620.62c.55,1.72,1.09,3.45,1.75,5.13a43.45,43.45,0,0,0,4.54,8.27,57.37,57.37,0,0,0,3.75,4.91c1.67,2,3.53,4,4.12,6.47a31.57,31.57,0,0,1,.37,4.46,5.49,5.49,0,0,0,1.83,3.95,6.83,6.83,0,0,0,3,1c.75.12,1.7.16,2.09-.5a1.85,1.85,0,0,0,.21-.86l.18-2.18c0-.47.2-1.1.68-1.1s.7.61,1.09.89a1.19,1.19,0,0,0,1.6-.48l0-.07a2.73,2.73,0,0,0,0-1.91,9.07,9.07,0,0,0-4.66-5.77,14,14,0,0,1-2.27-1.18,7.64,7.64,0,0,1-1.78-2.25c-4.13-6.79-8.27-13.64-11.19-21a15.74,15.74,0,0,1-1.15-4.14,26.59,26.59,0,0,1,.18-4.37,24.92,24.92,0,0,0-.72-7.79,6.06,6.06,0,0,0-.74-1.89,4.24,4.24,0,0,0-5.8-.84,6,6,0,0,0-2.3,4.21c-.13,1.47.72,3,1.15,4.37Q559.36,614.28,561.34,620.62Z" transform="translate(-469 -299)"/><path id="Path_397" data-name="Path 397" class="cls-18" d="M644.14,685.41c-2.14,1.3-4.8,1.38-7.29,1.09a1.23,1.23,0,0,0-1.13.23c-.37.45.07,1.09.52,1.47a10.81,10.81,0,0,0,5,2.06,33.66,33.66,0,0,0,4.91.33,83.19,83.19,0,0,0,13.39-.5,1.91,1.91,0,0,0,.73-.21,1.42,1.42,0,0,0,.54-.84,3.34,3.34,0,0,0-1.17-3.19,9.92,9.92,0,0,0-3.12-1.68l-3.88-1.51c-.91-.35-2.38-1.3-3.37-1.22C647.45,681.56,645.69,684.5,644.14,685.41Z" transform="translate(-469 -299)"/><path id="Path_398" data-name="Path 398" class="cls-18" d="M653.91,694.54a9.56,9.56,0,0,1-6.53,2.43c-.61,0-1.46.12-1.46.73a1,1,0,0,0,.18.51,6,6,0,0,0,3.37,2.64,11.86,11.86,0,0,0,4.07.25l4-.2c.76,0,1.51-.08,2.26-.17s1.56-.25,2.34-.37a31.28,31.28,0,0,1,5.8-.27,1.69,1.69,0,0,0,1.43-.38c.36-.45.15-1.09,0-1.64-.24-1.15,0-2.36-.23-3.52a6.2,6.2,0,0,0-4.06-4.33c-1.79-.68-5-1.46-6.66-.33S655.51,693.08,653.91,694.54Z" transform="translate(-469 -299)"/><path id="Path_399" data-name="Path 399" class="cls-13" d="M646,643c-1.64,2.15-3.28,4.64-2.89,7.3a16,16,0,0,0,1.61,4,28.42,28.42,0,0,1,1.63,5.66c.61,2.82,1.21,5.65,1.59,8.51a53,53,0,0,1,.36,9.76,3.33,3.33,0,0,1-.69,2.19c-.21.21-.5.4-.59.69a1.17,1.17,0,0,0,.12.82,9.12,9.12,0,0,0,4.86,4.47,18.84,18.84,0,0,0,6.6,1.23,1.89,1.89,0,0,0,.88-.12,1.64,1.64,0,0,0,.69-.78c1.63-3.11.72-6.86.75-10.36,0-2.93.71-5.84.58-8.77-.1-2.34-.73-4.63-1-7-.37-3.82.33-7.69,1-11.48.55-2.9,1.1-5.81,1.78-8.69a16.57,16.57,0,0,1,1.87-5c.77-1.21,1.8-2.22,2.68-3.35a15.22,15.22,0,0,0,3-11.12c-.06-.39-5.62,1.41-6.1,1.64a19.14,19.14,0,0,0-5.46,3.5,45,45,0,0,0-3.42,4.24c-1.6,1.93-3.16,3.88-4.7,5.85Q648.6,639.57,646,643Z" transform="translate(-469 -299)"/><path id="Path_400" data-name="Path 400" class="cls-16" d="M646,643c-1.64,2.15-3.28,4.64-2.89,7.3a16,16,0,0,0,1.61,4,28.42,28.42,0,0,1,1.63,5.66c.61,2.82,1.21,5.65,1.59,8.51a53,53,0,0,1,.36,9.76,3.33,3.33,0,0,1-.69,2.19c-.21.21-.5.4-.59.69a1.17,1.17,0,0,0,.12.82,9.12,9.12,0,0,0,4.86,4.47,18.84,18.84,0,0,0,6.6,1.23,1.89,1.89,0,0,0,.88-.12,1.64,1.64,0,0,0,.69-.78c1.63-3.11.72-6.86.75-10.36,0-2.93.71-5.84.58-8.77-.1-2.34-.73-4.63-1-7-.37-3.82.33-7.69,1-11.48.55-2.9,1.1-5.81,1.78-8.69a16.57,16.57,0,0,1,1.87-5c.77-1.21,1.8-2.22,2.68-3.35a15.22,15.22,0,0,0,3-11.12c-.06-.39-5.62,1.41-6.1,1.64a19.14,19.14,0,0,0-5.46,3.5,45,45,0,0,0-3.42,4.24c-1.6,1.93-3.16,3.88-4.7,5.85Q648.6,639.57,646,643Z" transform="translate(-469 -299)"/><path id="Path_401" data-name="Path 401" class="cls-13" d="M657.86,626.42c.34,1.67,2,3,2,4.66,0,1.36-.93,2.51-1.64,3.68a24.64,24.64,0,0,0-1.67,3.79,57.81,57.81,0,0,1-4.91,9.75c-.93,1.48-2,3.09-1.76,4.83a7.37,7.37,0,0,0,.84,2.31l2.8,5.57a15.39,15.39,0,0,1,1.43,3.52c.25,1.06.27,2.18.41,3.23.45,3.42,2,6.85,1.09,10.17-.08.28-.38.62-.6.43a10.62,10.62,0,0,1,1.6,5.45,7.51,7.51,0,0,0,0,3.06,3.31,3.31,0,0,1,.43,1.17,8.09,8.09,0,0,1-.16.83,1.83,1.83,0,0,0,1.4,1.7c.75.25,1.57.23,2.33.45,1.46.44,2.5,1.7,3.75,2.57a7.92,7.92,0,0,0,4.31,1.4.83.83,0,0,0,1-.89,4.3,4.3,0,0,0-1.55-3.72,1.73,1.73,0,0,1-.54-.6,1.53,1.53,0,0,1-.06-.67,49.63,49.63,0,0,0-.16-9.2,13.56,13.56,0,0,1-.14-2.92,11.73,11.73,0,0,0,.23-2.44,12,12,0,0,0-.75-2.33,16.38,16.38,0,0,1-.35-4.36,38.45,38.45,0,0,0-1.23-7.47,5.7,5.7,0,0,0-1.17-2.7c-.58-.62-1.52-1.19-1.3-2a2.24,2.24,0,0,1,.55-.8,3.21,3.21,0,0,0,.67-2.44,1.1,1.1,0,0,0,1.26-.59,19.68,19.68,0,0,0,9.86-11.22,4.06,4.06,0,0,1,.44-1,4.53,4.53,0,0,1,1.81-1.17c2-1,3.45-3,4.74-4.84a11.1,11.1,0,0,0,1.83-3.51,11.31,11.31,0,0,0,.25-2.53l.12-4.36a2.76,2.76,0,0,0-.08-.86,2.08,2.08,0,0,0-.48-.7,8.49,8.49,0,0,0-4.66-2.51c-1.2-.21-2.41-.18-3.63-.27-2.34-.2-4.66-.93-7-.76a11.3,11.3,0,0,0-8.73,6.1C659.81,625.4,659.17,626.38,657.86,626.42Z" transform="translate(-469 -299)"/><path id="Path_402" data-name="Path 402" class="cls-12" d="M535.42,693.25a6.07,6.07,0,0,0,2.5.3c.06-.7,1-.85,1.69-.82a2,2,0,0,1,1,.22c.18.11.31.27.48.39a2.1,2.1,0,0,0,1,.25l3.61.31a10.93,10.93,0,0,0,4.79-.32,1.57,1.57,0,0,0,.77-.51,1.47,1.47,0,0,0-.54-1.85c-.55-.43-1.3-.62-1.86-1.06-1.26-1-1.43-2.73-2.09-4.17a12.26,12.26,0,0,0-1.73-2.5,9.44,9.44,0,0,0-1.71-1.75c-1.44-1-3.11-1-4.81-1.17-1.2-.11-2.33-.18-3.19.88-1.06,1.32-.64,4-.57,5.56a39.57,39.57,0,0,0,.68,6.24Z" transform="translate(-469 -299)"/><path id="Path_403" data-name="Path 403" class="cls-16" d="M535.42,693.25a6.07,6.07,0,0,0,2.5.3c.06-.7,1-.85,1.69-.82a2,2,0,0,1,1,.22c.18.11.31.27.48.39a2.1,2.1,0,0,0,1,.25l3.61.31a10.93,10.93,0,0,0,4.79-.32,1.57,1.57,0,0,0,.77-.51,1.47,1.47,0,0,0-.54-1.85c-.55-.43-1.3-.62-1.86-1.06-1.26-1-1.43-2.73-2.09-4.17a12.26,12.26,0,0,0-1.73-2.5,9.44,9.44,0,0,0-1.71-1.75c-1.44-1-3.11-1-4.81-1.17-1.2-.11-2.33-.18-3.19.88-1.06,1.32-.64,4-.57,5.56a39.57,39.57,0,0,0,.68,6.24Z" transform="translate(-469 -299)"/><path id="Path_404" data-name="Path 404" class="cls-13" d="M536.88,623a2.53,2.53,0,0,0-1.38,2.88,10.22,10.22,0,0,0,1.46,3.14c1.6,2.87,2.3,6.16,3.65,9.16,1,2.24,2.37,4.32,3.37,6.55a11.05,11.05,0,0,1,1,7.17c-.3,1.16-.87,2.23-1.25,3.37a19,19,0,0,0-.73,3.82,72.54,72.54,0,0,0-.26,13.18,4,4,0,0,0,.33,1.56c.23.44.62.9.43,1.35-.08.18-.24.31-.32.49-.23.5.23,1,.65,1.38a1.16,1.16,0,0,1-.71.55,1.66,1.66,0,0,1,.72,1.86c-.38.06-.4.63-.16.93s.6.49.77.83a1.16,1.16,0,0,1-.63,1.46,3,3,0,0,1-1.75.13,18.22,18.22,0,0,1-2.91-.64,2.49,2.49,0,0,1-.89-.41,2.6,2.6,0,0,1-.8-1.76,31.14,31.14,0,0,1-.2-5.46c.15-8.82,0-17.65-.39-26.46a30.07,30.07,0,0,0-2.6-10.28,50.57,50.57,0,0,0-2.53-4.91c-2-3.63-3.73-7.64-3.28-11.76,0-.44.22-1,.65-1a.86.86,0,0,1,.5.09,20.7,20.7,0,0,1,2.65,1.46A10.09,10.09,0,0,0,536.88,623Z" transform="translate(-469 -299)"/><path id="Path_405" data-name="Path 405" class="cls-16" d="M536.88,623a2.53,2.53,0,0,0-1.38,2.88,10.22,10.22,0,0,0,1.46,3.14c1.6,2.87,2.3,6.16,3.65,9.16,1,2.24,2.37,4.32,3.37,6.55a11.05,11.05,0,0,1,1,7.17c-.3,1.16-.87,2.23-1.25,3.37a19,19,0,0,0-.73,3.82,72.54,72.54,0,0,0-.26,13.18,4,4,0,0,0,.33,1.56c.23.44.62.9.43,1.35-.08.18-.24.31-.32.49-.23.5.23,1,.65,1.38a1.16,1.16,0,0,1-.71.55,1.66,1.66,0,0,1,.72,1.86c-.38.06-.4.63-.16.93s.6.49.77.83a1.16,1.16,0,0,1-.63,1.46,3,3,0,0,1-1.75.13,18.22,18.22,0,0,1-2.91-.64,2.49,2.49,0,0,1-.89-.41,2.6,2.6,0,0,1-.8-1.76,31.14,31.14,0,0,1-.2-5.46c.15-8.82,0-17.65-.39-26.46a30.07,30.07,0,0,0-2.6-10.28,50.57,50.57,0,0,0-2.53-4.91c-2-3.63-3.73-7.64-3.28-11.76,0-.44.22-1,.65-1a.86.86,0,0,1,.5.09,20.7,20.7,0,0,1,2.65,1.46A10.09,10.09,0,0,0,536.88,623Z" transform="translate(-469 -299)"/><path id="Path_406" data-name="Path 406" class="cls-13" d="M522,612.31a2.9,2.9,0,0,0-4,.43,21.05,21.05,0,0,0-2.07,1.82,11.09,11.09,0,0,0-2.48,11,22,22,0,0,0,3,5.38l2.4,3.45c3.67,5.26,7.33,10.52,11.17,15.65a.6.6,0,0,0,.41.55c.15,0,.31,0,.4.14a.42.42,0,0,1,0,.24,3.4,3.4,0,0,1-.21,1.09.5.5,0,0,0,0,.38c.12.28.64.12.81.4a.42.42,0,0,1-.18.54.65.65,0,0,0-.3.55c0,.22.4.43.38.7s-.13.26-.22.38a1,1,0,0,0,.12,1.26c.25,2.51-1.1,4.89-1.39,7.4-.43,3.94,1.36,7.8,1.58,11.76a3.23,3.23,0,0,0,.24,1.3c.37.68,1.32,1.09,1.29,1.87a7.75,7.75,0,0,1-.27.94,7.54,7.54,0,0,0,.15,1.35c0,.45-.39,1-.8.82.31,1,.59,2.1.84,3.17l8.4.69a7.52,7.52,0,0,0-.08-2.27c-.18-.81-.55-1.56-.73-2.37a2.82,2.82,0,0,1,.33-2.38.93.93,0,0,1-.93-.76,4.05,4.05,0,0,1,0-1.3c.23-2.18-.7-4.36-.67-6.55a31.59,31.59,0,0,1,.95-5.1c.65-3.64,0-7.6,1.59-10.91,1-2,2.34-4.23,1.24-6.18-.55-1-1.5-1.63-2.12-2.52a10.06,10.06,0,0,1-1.14-2.73c-1.3-4-3.39-7.72-5.23-11.52a12.16,12.16,0,0,1-1.13-3,15.3,15.3,0,0,1-.13-2.79,44.21,44.21,0,0,0-.31-5,3.66,3.66,0,0,0-1.92-3.28C528.23,615,525,613.88,522,612.31Z" transform="translate(-469 -299)"/><path id="Path_407" data-name="Path 407" class="cls-12" d="M532,696.33a6.11,6.11,0,0,0,2.51.3c.06-.7,1-.85,1.69-.82a1.92,1.92,0,0,1,1,.23c.18.11.31.27.48.38a1.88,1.88,0,0,0,1,.25l3.61.31a10.83,10.83,0,0,0,4.8-.32,1.54,1.54,0,0,0,.76-.51c.41-.58,0-1.42-.54-1.85s-1.29-.62-1.87-1.06c-1.25-1-1.42-2.73-2.09-4.17a11.83,11.83,0,0,0-1.72-2.5,9.34,9.34,0,0,0-1.7-1.74c-1.45-1.05-3.12-1-4.81-1.18-1.21-.11-2.34-.18-3.2.89-1.09,1.32-.64,4-.57,5.56A39.62,39.62,0,0,0,532,696.33Z" transform="translate(-469 -299)"/><rect id="Rectangle_24" data-name="Rectangle 24" class="cls-11" x="108.6" y="334.04" width="42.58" height="42.58"/><circle id="Ellipse_47" data-name="Ellipse 47" class="cls-15" cx="100.27" cy="290.44" r="8.32"/><path id="Path_408" data-name="Path 408" class="cls-15" d="M561.43,591.91c-1.2,1-2.9,1.09-4.47,1.26a28.06,28.06,0,0,0-9.61,2.79,3.39,3.39,0,0,0-1.1.76,3.07,3.07,0,0,0-.54,1.19,7.87,7.87,0,0,0-.32,2.89,8.42,8.42,0,0,0,.8,2.73,14.66,14.66,0,0,0,5.16,5.88,3.75,3.75,0,0,0,1.26.6c1.09.23,2.15-.41,3.23-.69a5.3,5.3,0,0,1,3,.1c.91.3,1.87.85,2.73.49a2.93,2.93,0,0,0,1.25-1.42,49.52,49.52,0,0,0,2.27-5,17.19,17.19,0,0,1,.82-1.93c1-1.84,2.64-3.27,3.47-5.16a1.14,1.14,0,0,0,.07-1,1.28,1.28,0,0,0-.61-.47,14.5,14.5,0,0,1-3.32-2.61c-.55-.55-1.56-1.94-2.34-2.07S562,591.4,561.43,591.91Z" transform="translate(-469 -299)"/><path id="Path_409" data-name="Path 409" class="cls-12" d="M561.62,608.82a5,5,0,0,1-3.14,0,35.24,35.24,0,0,1-7.92-2.3,4.33,4.33,0,0,1-1.94-1.49,4.93,4.93,0,0,1-.55-1.87l-.45-3.09a17.79,17.79,0,0,1,.14-3.18.93.93,0,0,0-.18-.69.73.73,0,0,0-.55-.17c-1.25,0-2,1.32-2.88,2.21a5.21,5.21,0,0,1-1.77,1.19c-.8.33-1.79.55-2.11,1.36-.13.34-.12.72-.25,1-.55,1.33-2.95.89-3.56,2.18-.17.37-.16.84-.45,1.14s-.82.28-1.25.36c-1.74.28-2.58,2.29-4.07,3.23-1.25.8-2.86.78-4.2,1.4a15.29,15.29,0,0,1-2.18,1.09,10.24,10.24,0,0,1-2.53.13.67.67,0,0,0-.51.16.71.71,0,0,0-.08.55A15.32,15.32,0,0,0,530.65,624a3.34,3.34,0,0,1,.81.38c.76.55.89,1.79,1.75,2.19a1.82,1.82,0,0,0,1.82-.4,15.14,15.14,0,0,0,1.32-1.45,5.3,5.3,0,0,1,2.93-1.54c1-.16,2.18,0,3-.67a10.15,10.15,0,0,0,1-1,6,6,0,0,1,2.18-1.29,21.93,21.93,0,0,1,6.83-1.44c2.18-.12,4.44.08,6.51-.64a3.85,3.85,0,0,0,1.45-.81,4.34,4.34,0,0,0,1-1.69A12.81,12.81,0,0,0,561.62,608.82Z" transform="translate(-469 -299)"/><path id="Path_410" data-name="Path 410" class="cls-12" d="M550.9,596.56c.61-.06,1.23,0,1.85,0s1.44-.18,2.18-.18a5.4,5.4,0,0,1,5.08,3.86,1,1,0,0,1,0,.55.39.39,0,0,1-.42.28,9.06,9.06,0,0,0-.93-1.87,5.31,5.31,0,0,0-2.8-1.94,7.15,7.15,0,0,0-3.44-.13c-.47.09-.93.21-1.4.34l-2.26.61c-.41.11-.82.23-1.22.38s-.83.54-1.13.54-.08-.35.1-.59a2.9,2.9,0,0,1,1.45-1.06A12.17,12.17,0,0,1,550.9,596.56Z" transform="translate(-469 -299)"/><path id="Path_411" data-name="Path 411" class="cls-15" d="M556.51,621.55c.54,1.73,1.09,3.45,1.75,5.13A43.15,43.15,0,0,0,562.8,635a59.12,59.12,0,0,0,3.75,4.92c1.67,2,3.53,4,4.12,6.46a31.81,31.81,0,0,1,.37,4.46,5.49,5.49,0,0,0,1.83,4,6.88,6.88,0,0,0,3,1c.76.12,1.7.16,2.09-.5a1.82,1.82,0,0,0,.21-.86l.18-2.18c0-.47.21-1.09.68-1.09s.71.6,1.09.88a1.18,1.18,0,0,0,1.6-.48.43.43,0,0,0,0-.07,2.79,2.79,0,0,0,0-1.91,9.1,9.1,0,0,0-4.64-5.77,13.2,13.2,0,0,1-2.27-1.18,7.64,7.64,0,0,1-1.79-2.25c-4.13-6.79-8.28-13.64-11.18-21a15.35,15.35,0,0,1-1.16-4.15,28.92,28.92,0,0,1,.18-4.36,24.7,24.7,0,0,0-.7-7.8,6.06,6.06,0,0,0-.74-1.89,4.24,4.24,0,0,0-5.8-.84,6,6,0,0,0-2.3,4.21c-.13,1.47.72,3,1.15,4.37Q554.53,615.21,556.51,621.55Z" transform="translate(-469 -299)"/><path id="Path_412" data-name="Path 412" class="cls-13" d="M581.38,583.56c.07-.7-.54-1.32-1.26-1.76a19.44,19.44,0,0,1-2.14-1.31c-.63-.55-1-1.27-1.61-1.81a7,7,0,0,0-2.4-1.2,18.07,18.07,0,0,0-5.74-1,10.09,10.09,0,0,0-5.49,1.45,3.22,3.22,0,0,0-.93.87,3.69,3.69,0,0,0-.46,1.38,26.79,26.79,0,0,1-1.43,4.36,10.11,10.11,0,0,1-2.73,4.41c-1.55,1.3-3.94,2.05-5,3.61a1.19,1.19,0,0,0-.23,1c.15.4.62.66,1,.91a14.37,14.37,0,0,1,5.83,5.58,6.48,6.48,0,0,1-.51,7c-.58.76-1.39,1.67-.82,2.44.87,1.16,3.86.5,4.55,1.73a2.53,2.53,0,0,1,.1,1.28c0,1.29,1.25,2.45,2.76,3a15.3,15.3,0,0,0,5,.82,4.32,4.32,0,0,0,.12-3.22,1.3,1.3,0,0,1-.12-.73,1.77,1.77,0,0,1,.54-.7c1.83-1.72,1.44-4.26.35-6.31s-2.8-3.92-3.43-6.07a3.08,3.08,0,0,1,.54-3.17A10.74,10.74,0,0,1,569.5,595a5.93,5.93,0,0,0,2.19-2.73c.5-1.42.43-3.13,1.92-4.07s3.43-.63,5-1.23A5.37,5.37,0,0,0,581.38,583.56Z" transform="translate(-469 -299)"/><circle id="Ellipse_48" data-name="Ellipse 48" class="cls-15" cx="159.04" cy="287.5" r="9.07"/><path id="Path_413" data-name="Path 413" class="cls-15" d="M636.21,586.12a11.76,11.76,0,0,0,7.53,5.26l-.68,2.48c-1.18,4.27-2.51,8.79-5.81,11.74a5.47,5.47,0,0,0-.92-4.24,16.21,16.21,0,0,0-3.08-3.22L628,593.6a1.49,1.49,0,0,1-.39-.44,1.31,1.31,0,0,1,0-1c.66-2.08,2.56-3.37,4.1-4.77a14.81,14.81,0,0,0,2.07-2.4C634.88,583.52,635.55,585,636.21,586.12Z" transform="translate(-469 -299)"/><path id="Path_414" data-name="Path 414" class="cls-18" d="M637.37,597.86a4.88,4.88,0,0,1-.27,2,1.42,1.42,0,0,1-1.64.84c.19-.43-.31-.93-.78-.87a1.43,1.43,0,0,0-1,.88,3.16,3.16,0,0,0-.3,2,8.44,8.44,0,0,1,.51,2.54c-.1.72-.63,1.43-.35,2.1a3.12,3.12,0,0,0,.68.81,2.3,2.3,0,0,1-.25,3.14l7.09.14a5,5,0,0,0,.88,3.44,21.7,21.7,0,0,0,16.16,10.56,1.4,1.4,0,0,0-.5,1.92,1.24,1.24,0,0,0,.17.23,2,2,0,0,0,2.27.13,17.26,17.26,0,0,0,1.94-1.46,6,6,0,0,1,4-1.09c.89.08,1.74.37,2.63.42,2.62.14,4.88-1.75,7.38-2.52,1.84-.54,3.92-.54,5.46-1.71a2.17,2.17,0,0,0,1-2.11,3.34,3.34,0,0,0-.76-1.23,21.92,21.92,0,0,1-2-3.82,22.87,22.87,0,0,0-5.11-6.84,45.09,45.09,0,0,0-5.07-3.85,8.28,8.28,0,0,0-1.37-.82,14.55,14.55,0,0,1-1.88-.77,10.39,10.39,0,0,1-2-2.18c-1.4-1.64-3.55-2.38-5.28-3.67-1.16-.86-2.19-2-3.57-2.42-.67-.2-1.39-.22-2.06-.42-1.53-.46-2.64-1.82-4.14-2.37a17,17,0,0,0-3.75-.48,8.78,8.78,0,0,1-3.85-1.45,4.5,4.5,0,0,0-1.25-.73c-1.89-.55-2,2.95-2.22,4.18A33.24,33.24,0,0,0,637.37,597.86Z" transform="translate(-469 -299)"/><path id="Path_415" data-name="Path 415" class="cls-15" d="M639.22,609.7c.31,3.44-2.29,6.78-1.53,10.16.16.72.47,1.4.58,2.13.32,2-.88,3.9-2,5.57l-9.81,14.37a9.06,9.06,0,0,1-1.4,1.73c-1.88,1.67-4.69,1.49-7.15,2a12.17,12.17,0,0,0-4.78,2.11.31.31,0,0,0-.06.43,4.12,4.12,0,0,0,3.56,1.67c.25.34,0,.84-.36,1.09-.55.37-1.25.46-1.35,1.35a1.48,1.48,0,0,0,.17.9,2.8,2.8,0,0,0,1.72,1.19c3.39,1,7.05-.78,9.59-3.27s4.36-5.6,6.85-8.13c1.38-1.4,2.95-2.59,4.37-4a51.89,51.89,0,0,0,7.16-9.27,10.45,10.45,0,0,0,1.55-3.16c.26-1.12.14-2.31.45-3.42a12.22,12.22,0,0,1,2.34-3.82,12.67,12.67,0,0,0,2.67-8.27,7.93,7.93,0,0,0-4.83-6.86,4.33,4.33,0,0,0-2.73-.16,6.48,6.48,0,0,0-2.76,2.18l-1.86,2.15a4.9,4.9,0,0,0-1.09,1.64,1.69,1.69,0,0,0,.38,1.82" transform="translate(-469 -299)"/><path id="Path_416" data-name="Path 416" class="cls-18" d="M644.17,595.55c-1.29.08-2.73.2-3.62,1.09a5.08,5.08,0,0,0-.9,1.43,14.13,14.13,0,0,0-1.81,5.68,25.39,25.39,0,0,0,.66,4.75c.2,1.31-.32,2.66-.41,4a28,28,0,0,0,5.15-2,17.22,17.22,0,0,1,3-1.57c1.54-.51,4.12.37,5.58,1.09.08-1-.69-2.81-.61-3.82a4.25,4.25,0,0,1,.23-1.27,7.9,7.9,0,0,1,.77-1.23,5,5,0,0,0-.45-5.9,8.22,8.22,0,0,0-5.26-2.23,22.68,22.68,0,0,0-3.68-.12" transform="translate(-469 -299)"/><path id="Path_417" data-name="Path 417" class="cls-13" d="M616.09,577.38l-.21-1.71c1.43.36,2.79-.85,3.71-2.11s1.76-2.73,3.15-3.27c1.7-.64,3.49.38,5.12,1.22a16,16,0,0,0,5.86,1.94,4.47,4.47,0,0,1,1,.16c1.06.38,1.56,1.7,1.71,2.9a11.29,11.29,0,0,0,.63,3.55c.4.81,1.09,1.41,1.48,2.18,1.09,2.15,0,5.08,1.21,7.19l-2.9-2.67c-.27-.24-.65-.5-.94-.29s-.25.55-.35.8a1.51,1.51,0,0,1-2,.78l-.06,0a5.55,5.55,0,0,1-1.85-1.69,11.32,11.32,0,0,0-4.62-3.5,5.9,5.9,0,0,0-4.88.29c-1.36.77-2.36,2.55-4,2.61-2.28.09-3.23-4.15-4.28-5.83a2.07,2.07,0,0,0,.6-2.57C614.57,577.27,616.05,577.11,616.09,577.38Z" transform="translate(-469 -299)"/><path id="Path_418" data-name="Path 418" class="cls-5" d="M821.37,469.39a10,10,0,0,1-2.85.78,5,5,0,0,0,2.19-2.73,10,10,0,0,1-3.16,1.21A5,5,0,0,0,809,472a5.35,5.35,0,0,0,.12,1.13A14.06,14.06,0,0,1,798.87,468a5,5,0,0,0,1.54,6.63,4.85,4.85,0,0,1-2.26-.62v.06a5,5,0,0,0,4,4.87,4.87,4.87,0,0,1-1.31.18,4.23,4.23,0,0,1-.94-.1,5,5,0,0,0,4.64,3.45,10,10,0,0,1-6.16,2.13,9.5,9.5,0,0,1-1.19-.07,14.1,14.1,0,0,0,21.73-11.9V472A9.9,9.9,0,0,0,821.37,469.39Z" transform="translate(-469 -299)"/><path id="Path_419" data-name="Path 419" class="cls-5" d="M803.34,576.23l1.64,4.11,10.68,11.33,3.58-3.37,2.26,2.38,2.38-2.25.14-4.64,3-2.81.24-8.12-9.57-10.13ZM824.89,574l-.13,4.63L821.17,582,821,586.6l-2.25-2.38-3,2.82-9.59-10.15,11.33-10.69Z" transform="translate(-469 -299)"/><path id="Path_420" data-name="Path 420" class="cls-5" d="M816.19,571.93l1.79-1.69,4.54,4.81-1.79,1.68ZM812,575.87l1.79-1.69,4.54,4.81-1.79,1.69Z" transform="translate(-469 -299)"/><path id="Path_421" data-name="Path 421" class="cls-5" d="M605.54,641.11H588a1.09,1.09,0,0,0-1.09,1.1h0v17.5a1.09,1.09,0,0,0,1.09,1.1h8.73V653h-2.36v-2.87h2.4V648a3.73,3.73,0,0,1,3.54-3.93h.5c1.09,0,2.25.08,2.52.12v2.65h-1.8c-1.24,0-1.48.59-1.48,1.45v1.83H603l-.38,2.87h-2.56v7.79h5.45a1.09,1.09,0,0,0,1.09-1.09h0v-17.5a1.1,1.1,0,0,0-1.08-1.1Z" transform="translate(-469 -299)"/><path id="Path_422" data-name="Path 422" class="cls-5" d="M758.58,516.16a4.11,4.11,0,0,1,4.1,4.1v8.19a4.11,4.11,0,0,1-4.1,4.1H750.4a4.18,4.18,0,0,1-2.9-1.2,4.06,4.06,0,0,1-1.21-2.9v-8.19a4.12,4.12,0,0,1,4.1-4.1h8.19m0-1.64H750.4a5.76,5.76,0,0,0-5.74,5.74v8.19a5.75,5.75,0,0,0,5.74,5.74h8.18a5.76,5.76,0,0,0,5.74-5.72v-8.19a5.76,5.76,0,0,0-5.74-5.76Z" transform="translate(-469 -299)"/><path id="Path_423" data-name="Path 423" class="cls-5" d="M759.81,520.27a1.23,1.23,0,1,1,.87-.36A1.23,1.23,0,0,1,759.81,520.27Zm-5.31.8a3.28,3.28,0,1,1-3.27,3.27h0a3.26,3.26,0,0,1,3.27-3.27m0-1.64a4.91,4.91,0,1,0,4.91,4.91,4.91,4.91,0,0,0-4.91-4.91Z" transform="translate(-469 -299)"/><path id="Path_424" data-name="Path 424" class="cls-5" d="M1011.88,607.22a4,4,0,0,0-3.81-4.16h0c-2.84-.14-5.73-.18-8.69-.18h-.92c-3,0-5.86,0-8.69.18a4,4,0,0,0-3.79,4.17q-.19,2.74-.18,5.46c0,1.8.05,3.65.17,5.45a4,4,0,0,0,3.79,4.18c3,.14,6,.2,9.15.2s6.17,0,9.16-.2a4,4,0,0,0,3.82-4.18c.12-1.82.18-3.65.17-5.48s0-3.65-.17-5.46Zm-15.46,10.51V607.66l7.43,5Z" transform="translate(-469 -299)"/><path id="Path_425" data-name="Path 425" class="cls-5" d="M740.86,414.12a11.46,11.46,0,0,0-4.6,22,9.67,9.67,0,0,1,.2-2.63l1.47-6.26a4.51,4.51,0,0,1-.37-1.81c0-1.7,1-3,2.22-3a1.54,1.54,0,0,1,1.56,1.52,1.48,1.48,0,0,1,0,.21,24,24,0,0,1-1,4.07,1.78,1.78,0,0,0,1.28,2.16,2,2,0,0,0,.54.05c2.18,0,3.64-2.8,3.64-6.11,0-2.51-1.7-4.39-4.78-4.39a5.46,5.46,0,0,0-5.65,5.26v.24a3.24,3.24,0,0,0,.76,2.25.54.54,0,0,1,.16.64c0,.21-.18.72-.23.92a.41.41,0,0,1-.46.33l-.12,0c-1.6-.66-2.35-2.41-2.35-4.37,0-3.27,2.72-7.17,8.18-7.17,4.37,0,7.27,3.17,7.27,6.58,0,4.5-2.5,7.87-6.2,7.87a3.28,3.28,0,0,1-2.8-1.43s-.67,2.64-.81,3.15a9.69,9.69,0,0,1-1.15,2.46,11.65,11.65,0,0,0,3.27.47,11.49,11.49,0,0,0,0-23Z" transform="translate(-469 -299)"/><path id="Path_426" data-name="Path 426" class="cls-19" d="M861,732c-.44-1.88-.71-3.51-.71-3.51a7.22,7.22,0,0,0-.81-3.56v-.52h0v-3.76a11.91,11.91,0,0,1,1-2c.68-1.18,0-5.51,0-5.51s-2.51-6.11-1.9-10-5.15-17.2-5.15-17.2a17,17,0,0,1,.54-3.82,2.39,2.39,0,0,0,.07-.8.17.17,0,0,0,0-.1v0c-.08-2.55-2.1-7.34-2.1-7.34l.27-9.13a26.8,26.8,0,0,0-.81-12.61c-.74-2.52-1.21-4.53-1.51-6.09q0-.27-.09-.51c4.33-.66,7.64-1.21,7.64-1.21s-2.51-10.5-4.21-12.34-3.05-7.61-3.05-7.61-.88-7.43.55-9.59,1.63-5.91,1.63-5.91,3.28-2.36,3.67-3.42a17.67,17.67,0,0,0,1.09-4.66c0-1.25-.41-2.36-.28-3s-1-3.15-.4-4.33a3.21,3.21,0,0,0,.22-1.14v0h0a16.84,16.84,0,0,0-.29-3.09,8.81,8.81,0,0,0-3.22-1.72l-.07-.28-.19-.74a3.37,3.37,0,0,0-.32-.19V585l.51-2.4c1-4.16-4.57-4.79-4.57-4.79a2.91,2.91,0,0,0-1.57-1.38c-1.09-.4-.19,6.27.33,6.7a20.88,20.88,0,0,1,2.19,3.44h0l.1.16a3.25,3.25,0,0,0-.26.27l.21,1.45,0,.22a6.06,6.06,0,0,0-.89,1.51,3.22,3.22,0,0,1,.81,2.37,7.46,7.46,0,0,0,.34,2.89c-.06-.07-.78-.85-1.49-.66s-2.73.79-2.73.79-1.5.26-1.36.59-1,1.77-1,1.77l-4-3.82a2.79,2.79,0,0,1-.12-.34,9.4,9.4,0,0,1-.35-1.64,9.53,9.53,0,0,0,1.28-.41,2.82,2.82,0,0,0,1.09-.71,4.12,4.12,0,0,0,.64-1.73,25.31,25.31,0,0,1,1.49-3.32A10.82,10.82,0,0,0,844,580a3.87,3.87,0,0,0-.61-1.74c-.66-.9-1.85-1.27-2.73-2s-1.42-1.81-2.43-2.35a4.74,4.74,0,0,0-3-.26,16,16,0,0,0-5.68,2.06,2.92,2.92,0,0,1-1.9.63,2.56,2.56,0,0,1-1.37-1,.06.06,0,0,1,0-.06l0,0a7,7,0,0,0-.62,3V579h0a1.43,1.43,0,0,1,0,.22,1.53,1.53,0,0,1-.37.54,3.72,3.72,0,0,0-.33.45.44.44,0,0,1,.06-.16,2.34,2.34,0,0,0-.42,1.26,1.24,1.24,0,0,0,.31.9,4.22,4.22,0,0,0,.64.55,8.42,8.42,0,0,0-.11,1.33,7.77,7.77,0,0,0,3.78,6.62l.13.34a9.63,9.63,0,0,1,.73,4.37.7.7,0,0,1-.05.32l-.14.16h0s-6.63.07-8.19-1.34-3.93,3.44-3.93,3.44-2.38.47-2.85,0-3.27-.06-3.27-.06a6,6,0,0,0-4.14-1.51,12.57,12.57,0,0,0-3-1.69h0l-.08,0h0a3.47,3.47,0,0,0-1.5-.18,29.88,29.88,0,0,1-4.2-4.14c-.92-1.44-5.45-6.8-5.49-6.83v-.26l-.06-.78a1.75,1.75,0,0,1-.4,0,.66.66,0,0,0-.09-.27,14.58,14.58,0,0,0-1-2.18s0-1,.29-1.23-.12-3.86-.12-3.86-2.94-6.86-5.56-1.74c0,0-5,3.31-.8,7.17,0,0,1.64.8,1.9,1.45.16.41.72,1.57,1.09,2.34l.17.35,0,0,.07.65v.25c-.79.44-1.32.88-1.19,1.22a7.23,7.23,0,0,1,.47,1.77s5.77,7.22,6.52,10.31c0,0,15.46,9.19,20.55,9.85l-.88,4.59a36.24,36.24,0,0,0-.2,3.75c.06,1-.61,5.45-.61,5.45s-.89,6.55-1.64,7.48-.61,4.87-.61,4.87a32.89,32.89,0,0,1-1,5.57,14.41,14.41,0,0,0-.2,5.59s-2.58,5.9,3.6,1.9c0,0,3-.19,6.55-.31v1.8c0,3.38-.06,8,.09,11.58.27,6.24,2.18,18.55,2.18,18.55v6.2a8.11,8.11,0,0,0-.17,1.77,11.42,11.42,0,0,0,1.67,6.21l.47,4.14a17.3,17.3,0,0,1,1.14,4.36,2.57,2.57,0,0,1,0,.4,3.28,3.28,0,0,0-.06.63,36.11,36.11,0,0,0,1.09,6.37s.07,4.53.75,4.79-.77,2.62-1.18,3.28a.69.69,0,0,1,0-.13l-.09.13a3.25,3.25,0,0,0-.21,1.15,1.63,1.63,0,0,0,.75,1.59c1.29.79,2,1.45.89,1.71a9.68,9.68,0,0,0-1.19.25c0-.05-.05-.1-.06-.15a.73.73,0,0,0-.43.76,3.3,3.3,0,0,0,.41,1.53,16.5,16.5,0,0,0,1.83,3.35l.55-.06a2.23,2.23,0,0,1-.31.54,2,2,0,0,1-.76.68,2.34,2.34,0,0,1-.93.32,2.58,2.58,0,0,0-1.92.94,2,2,0,0,0-.09,2.83,1.75,1.75,0,0,0,.33.28l4.85,1.67s8.34,1.09,7.9-.78-.71-3.51-.71-3.51a7.48,7.48,0,0,0-.68-3.33,4.94,4.94,0,0,0-.3-.49l.3,0s.61-4.14,1.42-4.91c.19-.18.23-.32.19-.43s-.13-.36-.4-.43l-.06.16a5.58,5.58,0,0,0-.81-.09s-.27-2.18.6-3a.86.86,0,0,0,.18-.65,4.31,4.31,0,0,0-.09-.88l0,0a32,32,0,0,0-1.94-5.09,6.22,6.22,0,0,1,.47-2.76c.54-.79-.07-10.7-.07-10.7a32.35,32.35,0,0,0-.4-7c-.62-2.23.74-4.86.74-4.86v-.18s0-.3-.08-.76v.05c-.13-1.27-.39-3.57-.58-4.63a86.08,86.08,0,0,1,.06-8.73l1.22-3.08,2.19,5.31,2.3,7.1a6,6,0,0,1,1.17,3v.22a3.84,3.84,0,0,0,0,.48,4.24,4.24,0,0,0,.7,2.52s.61,3.35,1.56,4.2a3.78,3.78,0,0,1,1,2.5,42.07,42.07,0,0,0,1.7,5.71,8.28,8.28,0,0,1,.48,3.27h0v.18s.15,1.74.15,3.2v.51a5.21,5.21,0,0,1-.14,1.18v-.18a11.9,11.9,0,0,0-.35,3c0,1.75.23,3.82,1.29,5,1.83,2.1,3,1.84,3,1.84s-.89,2.62-2,3.15l-.12.07a.21.21,0,0,0,0-.15,1.29,1.29,0,0,0-.31,1,7,7,0,0,0,1.34,3.89,2.07,2.07,0,0,0,.92.55l-.17.1-.38.18a2,2,0,0,1-.55.14,2.61,2.61,0,0,0-1.92.93,2,2,0,0,0-.09,2.84,2.22,2.22,0,0,0,.33.28l4.85,1.67S861.45,733.88,861,732Z" transform="translate(-469 -299)"/><path id="Path_427" data-name="Path 427" class="cls-20" d="M829.16,735.08l-4.7-1.67a2,2,0,0,1-.45-2.85,1.49,1.49,0,0,1,.23-.27,2.45,2.45,0,0,1,1.85-.93,2.37,2.37,0,0,0,.9-.32,2.23,2.23,0,0,0,.75-.68,3.52,3.52,0,0,0,.54-1.82s5.16-1.5,6.55,0a4.17,4.17,0,0,1,.63.92,7.58,7.58,0,0,1,.65,3.32s.26,1.64.69,3.51S829.16,735.08,829.16,735.08Z" transform="translate(-469 -299)"/><path id="Path_428" data-name="Path 428" class="cls-20" d="M852.14,732.79l-4.69-1.67a2,2,0,0,1-.47-2.84,1.55,1.55,0,0,1,.24-.27,2.43,2.43,0,0,1,1.86-.94,2.12,2.12,0,0,0,.55-.14l.36-.18a3,3,0,0,0,1.28-2.5s5.15-1.51,6.55,0a4,4,0,0,1,.49.67,7.61,7.61,0,0,1,.79,3.57s.26,1.64.69,3.51S852.14,732.79,852.14,732.79Z" transform="translate(-469 -299)"/><path id="Path_429" data-name="Path 429" class="cls-6" d="M834.84,726.54a3.63,3.63,0,0,1,.62.92h0l-7.72.89a3.43,3.43,0,0,0,.55-1.81S833.43,725,834.84,726.54Z" transform="translate(-469 -299)"/><path id="Path_430" data-name="Path 430" class="cls-6" d="M858.31,724.9v1.45c-1.2,2-7,1.55-8.7.54a2,2,0,0,0,.36-.18,3,3,0,0,0,1.28-2.49s5.15-1.51,6.55,0a3.1,3.1,0,0,1,.51.68Z" transform="translate(-469 -299)"/><path id="Path_431" data-name="Path 431" class="cls-13" d="M859.23,718.66a13.06,13.06,0,0,0-.92,2v5.19c-1.31,2.19-8.14,1.45-9,.27s-1.91-4.27-.86-4.79,1.9-3.16,1.9-3.16-1.09.26-2.89-1.84-1.24-6.76-.91-7.88a24.56,24.56,0,0,0,0-4.85s.06-2.63-.46-3.48a42.38,42.38,0,0,1-1.64-5.72,3.87,3.87,0,0,0-.92-2.49c-.91-.86-1.51-4.2-1.51-4.2a4.25,4.25,0,0,1-.65-2.82,5.76,5.76,0,0,0-1.12-3.42L838,674.35l-2.1-5.32-1.18,3.08s-.33,7.23-.07,8.73.66,5.51.66,5.51a8.08,8.08,0,0,0-.72,4.86,33.12,33.12,0,0,1,.39,7s.59,9.91.07,10.7a6.24,6.24,0,0,0-.46,2.73s2.69,5.78,1.83,6.55-.59,3-.59,3,1.84,0,1.06.78-1.38,4.91-1.38,4.91l-8,1a16.3,16.3,0,0,1-1.78-3.35c-1-2.42.2-2.18,1.25-2.42s.39-.92-.86-1.71-.55-2.56-.55-2.56,1.9-3.22,1.25-3.48-.72-4.79-.72-4.79-1.31-5.39-1-6.83-1.06-4.91-1.06-4.91l-.46-4.14a11.32,11.32,0,0,1-1.41-7.82v-6.39s-1.84-12.34-2.11-18.55c-.16-4-.12-9.45-.07-12.85,0-1.9.07-3.17.07-3.17l28.38-3a23.06,23.06,0,0,0,.51,4.22c.29,1.55.75,3.57,1.46,6.09a27.84,27.84,0,0,1,.79,12.6L851,674s2.49,6.11,2,8.18a17,17,0,0,0-.55,3.82s5.58,13.33,5,17.2,1.85,10,1.85,10S859.89,717.51,859.23,718.66Z" transform="translate(-469 -299)"/><path id="Path_432" data-name="Path 432" class="cls-16" d="M843,684.46l8.61-1.15S846.76,688.3,843,684.46Z" transform="translate(-469 -299)"/><path id="Path_433" data-name="Path 433" class="cls-6" d="M850.4,674.88s.3,3-1.57,4.2C848.83,679.08,852.17,678.55,850.4,674.88Z" transform="translate(-469 -299)"/><path id="Path_434" data-name="Path 434" class="cls-6" d="M849.87,665.16s-7.22,5.94-9.82,5.45S849.87,665.16,849.87,665.16Z" transform="translate(-469 -299)"/><path id="Path_435" data-name="Path 435" class="cls-6" d="M832.31,687.25s-5.45,1.25-5.64,3.45S832.31,687.25,832.31,687.25Z" transform="translate(-469 -299)"/><path id="Path_436" data-name="Path 436" class="cls-16" d="M833.52,714.62s-7.74,1.45-5.55,2.44a38.16,38.16,0,0,0,5.81,1.77S836.28,719,833.52,714.62Z" transform="translate(-469 -299)"/><g id="Group_76" data-name="Group 76" class="cls-21"><path id="Path_437" data-name="Path 437" d="M826.41,718.6a1.51,1.51,0,0,1-.71-1.13l-.08.15s-.72,1.76.55,2.56c.14.08.28.18.4.26s.48-.07.71-.13C828.32,720.07,827.65,719.41,826.41,718.6Z" transform="translate(-469 -299)"/><path id="Path_438" data-name="Path 438" d="M836.39,718.1c.21-.2.2-.7.07-1.36a3.7,3.7,0,0,0-.44,1.9A1.53,1.53,0,0,1,836.39,718.1Z" transform="translate(-469 -299)"/><path id="Path_439" data-name="Path 439" d="M835.19,685.43a9.14,9.14,0,0,0-.54,2.41,9.36,9.36,0,0,1,.6-1.63A5.12,5.12,0,0,0,835.19,685.43Z" transform="translate(-469 -299)"/><path id="Path_440" data-name="Path 440" d="M852.93,682a2.84,2.84,0,0,0,.07-.72c-.1.5-.16,1-.21,1.35C852.83,682.41,852.88,682.2,852.93,682Z" transform="translate(-469 -299)"/><path id="Path_441" data-name="Path 441" d="M835,708.78a4.26,4.26,0,0,0,.2-1.46,4.66,4.66,0,0,0-.38,1.84,2.22,2.22,0,0,1,.18-.38Z" transform="translate(-469 -299)"/><path id="Path_442" data-name="Path 442" d="M836.63,721.15a27.91,27.91,0,0,0-.9,4l-7.94.92a16.72,16.72,0,0,1-1.78-3.34c-.08-.19-.15-.39-.22-.58-.47.22-.67.71,0,2.18a16.22,16.22,0,0,0,1.78,3.34l7.94-.92s.59-4.13,1.38-4.91C837.23,721.45,837,721.26,836.63,721.15Z" transform="translate(-469 -299)"/><path id="Path_443" data-name="Path 443" d="M826.15,709.36s.06,4.53.72,4.8h0c.33-.75.54-1.46.25-1.58-.65-.26-.72-4.79-.72-4.79s-1.31-5.38-1-6.83-1-4.91-1-4.91l-.46-4.14a11.36,11.36,0,0,1-1.45-7.81v-6.38s-1.84-12.34-2.1-18.58c-.17-4-.12-9.44-.06-12.85v-1.64h-.23s0,1.26-.06,3.17c-.06,3.4-.1,8.86.06,12.85.27,6.24,2.1,18.58,2.1,18.58v6.37a11.39,11.39,0,0,0,1.48,7.88l.46,4.13s1.38,3.48,1,4.91S826.15,709.36,826.15,709.36Z" transform="translate(-469 -299)"/><path id="Path_444" data-name="Path 444" d="M849.52,724.33a7.54,7.54,0,0,1-1.26-3.12c-.81.73.12,3.58,1,4.7s7.75,1.9,9.07-.27v-1.25C856.54,726.16,850.39,725.45,849.52,724.33Z" transform="translate(-469 -299)"/><path id="Path_445" data-name="Path 445" d="M859.5,716.91a13.06,13.06,0,0,0-.92,2v.92c.15-.33.36-.78.65-1.31a3.85,3.85,0,0,0,.29-1.64Z" transform="translate(-469 -299)"/><path id="Path_446" data-name="Path 446" d="M849.92,718a13.18,13.18,0,0,0,.65-1.56s-1.09.26-2.89-1.84c-1.29-1.53-1.36-4.41-1.18-6.3-.33,1.12-.86,5.78.91,7.88A4.7,4.7,0,0,0,849.92,718Z" transform="translate(-469 -299)"/><path id="Path_447" data-name="Path 447" d="M846.5,703.39a36,36,0,0,1,.13,3.89,6.14,6.14,0,0,1,.13-.61,23.22,23.22,0,0,0,0-4.86s.07-2.63-.46-3.48a43.27,43.27,0,0,1-1.63-5.71,3.9,3.9,0,0,0-.92-2.49c-.92-.86-1.51-4.2-1.51-4.2a4.33,4.33,0,0,1-.66-2.82,5.73,5.73,0,0,0-1.09-3.42l-2.23-7.09-2.13-5.29-1.19,3.08s0,.39,0,1l1-2.5,2.1,5.32,2.24,7.09a5.7,5.7,0,0,1,1.09,3.41,4.29,4.29,0,0,0,.68,2.79s.59,3.35,1.5,4.2a3.94,3.94,0,0,1,.93,2.5,40.42,40.42,0,0,0,1.63,5.71C846.58,700.76,846.5,703.39,846.5,703.39Z" transform="translate(-469 -299)"/></g><path id="Path_448" data-name="Path 448" class="cls-22" d="M852,582.59l-.49,2.4,0,1.1v.78l-2.73.29-.31-.55h0a22.93,22.93,0,0,0-2.13-3.44c-.5-.42-1.4-7.09-.32-6.7a2.89,2.89,0,0,1,1.52,1.38S853,578.42,852,582.59Z" transform="translate(-469 -299)"/><path id="Path_449" data-name="Path 449" class="cls-6" d="M851.57,586.85l-2.73.28-.31-.55h0a2.44,2.44,0,0,1,3-.5Z" transform="translate(-469 -299)"/><path id="Path_450" data-name="Path 450" class="cls-23" d="M852.26,588.14l-3.61.84-.08-.54-.2-1.45a2.48,2.48,0,0,1,3.47-.5l0,0,.18.74Z" transform="translate(-469 -299)"/><path id="Path_451" data-name="Path 451" class="cls-22" d="M793.74,582.86l-3.85,2.07-.35-.73c-.37-.77-.92-1.93-1.09-2.34-.23-.64-1.84-1.45-1.84-1.45-4-3.86.77-7.17.77-7.17,2.55-5.12,5.38,1.74,5.38,1.74s.4,3.61.12,3.85-.28,1.24-.28,1.24a14.43,14.43,0,0,1,.93,2.18A5.93,5.93,0,0,1,793.74,582.86Z" transform="translate(-469 -299)"/><path id="Path_452" data-name="Path 452" class="cls-6" d="M793.74,582.86l-3.85,2.07-.35-.73c.54-.46,2.47-2,3.1-2a4.61,4.61,0,0,0,.91,0C793.68,582.63,793.74,582.86,793.74,582.86Z" transform="translate(-469 -299)"/><path id="Path_453" data-name="Path 453" class="cls-23" d="M794.13,584l-4.33,2.14-.09-.94-.06-.63s2.51-2.16,3.28-2.08a3.57,3.57,0,0,0,1.13,0l.05.78Z" transform="translate(-469 -299)"/><path id="Path_454" data-name="Path 454" class="cls-22" d="M841.51,598.52s-18.9,2.13-15.37,1a4.74,4.74,0,0,0,3.65-4.1,10.13,10.13,0,0,0-.7-4.36,19.77,19.77,0,0,0-1.69-3.42s14.44-7.94,11.55-.72a11.55,11.55,0,0,0-.82,3.42,9.85,9.85,0,0,0,.37,3.46A10.35,10.35,0,0,0,841.51,598.52Z" transform="translate(-469 -299)"/><path id="Path_455" data-name="Path 455" class="cls-6" d="M839,586.9a11.18,11.18,0,0,0-.82,3.42c-1.36,1.14-2.85,1.09-4.77,1.09-1.47,0-3.1.36-4.28-.35a19,19,0,0,0-1.69-3.41S841.83,579.67,839,586.9Z" transform="translate(-469 -299)"/><circle id="Ellipse_49" data-name="Ellipse 49" class="cls-22" cx="364.1" cy="285.08" r="7.81"/><path id="Path_456" data-name="Path 456" class="cls-6" d="M841.51,598.52s-18.9,2.13-15.37,1a4.74,4.74,0,0,0,3.65-4.1,10.24,10.24,0,0,1,4-2.14,5.63,5.63,0,0,1,3.42,0,4.29,4.29,0,0,1,1.24.54A10.38,10.38,0,0,0,841.51,598.52Z" transform="translate(-469 -299)"/><path id="Path_457" data-name="Path 457" class="cls-6" d="M852.26,588.14l-3.61.84-.08-.54a3.18,3.18,0,0,1,3.47-1.19Z" transform="translate(-469 -299)"/><path id="Path_458" data-name="Path 458" class="cls-6" d="M794.13,584l-4.33,2.14-.09-.94a33.34,33.34,0,0,1,4.37-1.93Z" transform="translate(-469 -299)"/><path id="Path_459" data-name="Path 459" class="cls-6" d="M849,646.13c-7.32,1.15-17.73,2.66-19.39,2.15-1.36-.42-5.74-.37-9.56-.24,0-1.9.07-3.17.07-3.17l28.37-3a25,25,0,0,0,.51,4.21Z" transform="translate(-469 -299)"/><path id="Path_460" data-name="Path 460" class="cls-18" d="M856.28,644.39s-24.1,4.13-26.68,3.34-15.87.07-15.87.07c-6,4-3.47-1.9-3.47-1.9a14,14,0,0,1,.2-5.58,34,34,0,0,0,1-5.58s-.13-3.94.59-4.86,1.58-7.48,1.58-7.48.65-4.46.59-5.46a36.63,36.63,0,0,1,.2-3.74l.85-4.6c-4.91-.65-19.89-9.84-19.89-9.84-.72-3.09-6.3-10.31-6.3-10.31a7.9,7.9,0,0,0-.46-1.78c-.4-1,5.51-3.14,5.51-3.14s4.4,5.38,5.32,6.82a30,30,0,0,0,4.07,4.14,3.25,3.25,0,0,1,1.45.19H805a11.47,11.47,0,0,1,2.94,1.69,5.63,5.63,0,0,1,4,1.51s2.7-.4,3.16.06,2.72,0,2.72,0,2.3-4.85,3.82-3.45,7.92,1.35,7.92,1.35c.86-1.13,2.93-2,4.24-2.37a5.62,5.62,0,0,1,3.42-.05,4.35,4.35,0,0,1,1.35.66l3.89,3.81s1.09-1.44,1-1.77,1.32-.59,1.32-.59,1.9-.59,2.62-.79,1.39.59,1.44.66a7.66,7.66,0,0,1-.32-2.89,3.28,3.28,0,0,0-.79-2.36c2.32-5.61,7.51-.87,7.51-.87s.59,3.09.06,4.27.55,3.68.4,4.33.26,1.78.26,3a17.86,17.86,0,0,1-1.05,4.67c-.4,1-3.55,3.41-3.55,3.41s-.2,3.74-1.57,5.9-.55,9.59-.55,9.59,1.31,5.78,3,7.64S856.28,644.39,856.28,644.39Z" transform="translate(-469 -299)"/><path id="Path_461" data-name="Path 461" class="cls-6" d="M821.15,601.21s-.72-2.18-1.38-2.37a15.32,15.32,0,0,1-1.9-.85l.43-.8s2.46.67,2.86,1.4A5.66,5.66,0,0,1,821.15,601.21Z" transform="translate(-469 -299)"/><path id="Path_462" data-name="Path 462" class="cls-6" d="M808,596.42c-.14.65-6,1.25-6,1.25l3-3h0l.08,0h0A11.51,11.51,0,0,1,808,596.42Z" transform="translate(-469 -299)"/><circle id="Ellipse_50" data-name="Ellipse 50" class="cls-24" cx="322.05" cy="288.41" r="0.52"/><circle id="Ellipse_51" data-name="Ellipse 51" class="cls-24" cx="322.72" cy="289.46" r="0.52"/><circle id="Ellipse_52" data-name="Ellipse 52" class="cls-24" cx="323.38" cy="290.43" r="0.52"/><circle id="Ellipse_53" data-name="Ellipse 53" class="cls-24" cx="324.07" cy="291.48" r="0.52"/><circle id="Ellipse_54" data-name="Ellipse 54" class="cls-24" cx="385.96" cy="291.42" r="0.43"/><circle id="Ellipse_55" data-name="Ellipse 55" class="cls-24" cx="386.02" cy="292.39" r="0.43"/><circle id="Ellipse_56" data-name="Ellipse 56" class="cls-24" cx="386.08" cy="293.36" r="0.43"/><path id="Path_463" data-name="Path 463" class="cls-6" d="M821.19,619c-.06-.08,14.73,18.61,26.23,7.81C847.42,626.81,829.26,629.27,821.19,619Z" transform="translate(-469 -299)"/><path id="Path_464" data-name="Path 464" class="cls-6" d="M812.68,628.72s8.86.24,9.79,2.79v2.65a1.71,1.71,0,0,1-1.64,0c-.89-.48-6.25-3.2-8.13-1.89Z" transform="translate(-469 -299)"/><path id="Path_465" data-name="Path 465" class="cls-18" d="M812.85,628.72s8.47.23,9.36,2.66v2.53a1.64,1.64,0,0,1-1.58,0c-.86-.47-6-3.06-7.78-1.81Z" transform="translate(-469 -299)"/><path id="Path_466" data-name="Path 466" class="cls-6" d="M817.52,609.47a28.34,28.34,0,0,0,3.43,5.88,23.09,23.09,0,0,0,5.38,5.2S817.67,610.71,817.52,609.47Z" transform="translate(-469 -299)"/><path id="Path_467" data-name="Path 467" class="cls-6" d="M814.62,599.2s1.48,6.38,5.28,8.54Z" transform="translate(-469 -299)"/><path id="Path_468" data-name="Path 468" class="cls-6" d="M812.34,599.84c0-.12-1.31,5,4.91,7.9C817.25,607.74,814.62,606.85,812.34,599.84Z" transform="translate(-469 -299)"/><path id="Path_469" data-name="Path 469" class="cls-6" d="M851,595.56a47,47,0,0,1,3.93,3S852.9,595.43,851,595.56Z" transform="translate(-469 -299)"/><path id="Path_470" data-name="Path 470" class="cls-20" d="M831,591.16a1.65,1.65,0,0,0,.61,1.05,1.7,1.7,0,0,0,.73.17,16.12,16.12,0,0,0,7.1-.67,2.65,2.65,0,0,0,1.09-.71,4.44,4.44,0,0,0,.58-1.72,26.41,26.41,0,0,1,1.44-3.32,11.06,11.06,0,0,0,.77-6,4,4,0,0,0-.59-1.74c-.64-.91-1.79-1.27-2.62-2s-1.38-1.82-2.35-2.36a4.57,4.57,0,0,0-2.94-.26,15.48,15.48,0,0,0-5.5,2.07,2.75,2.75,0,0,1-1.84.63,2.57,2.57,0,0,1-1.36-1,7.35,7.35,0,0,0-.58,3.4,1,1,0,0,1-.37,1.06,2,2,0,0,0-.37,2.45c.25.3.64.46.89.77.44.54.29,1.33.27,2a1.12,1.12,0,0,0,.18.69,1,1,0,0,0,1,.23,2.71,2.71,0,0,1,1-.1,1.76,1.76,0,0,1,.9.69A12.56,12.56,0,0,1,831,591.16Z" transform="translate(-469 -299)"/><g id="Group_77" data-name="Group 77" class="cls-25"><path id="Path_471" data-name="Path 471" d="M840.71,590.4a2.47,2.47,0,0,1-1.09.7c-2.18.93-4.68.82-7.06.67a1.55,1.55,0,0,1-.73-.16,1.66,1.66,0,0,1-.62-1.06,12.12,12.12,0,0,0-2-4.62,1.7,1.7,0,0,0-.89-.69,2.74,2.74,0,0,0-1,.1,1,1,0,0,1-1-.23,1,1,0,0,1-.17-.69c0-.7.15-1.5-.29-2-.24-.31-.63-.47-.89-.77a1.53,1.53,0,0,1-.14-1.57,1.79,1.79,0,0,0-.12,2.1c.26.3.64.46.89.77.44.54.29,1.34.28,2a1.11,1.11,0,0,0,.17.69,1,1,0,0,0,1,.23,2.71,2.71,0,0,1,1-.1,1.72,1.72,0,0,1,.9.69,12.43,12.43,0,0,1,2,4.62,1.65,1.65,0,0,0,.61,1.06,1.7,1.7,0,0,0,.74.16,15.94,15.94,0,0,0,7.09-.66,2.67,2.67,0,0,0,1.09-.72,2.13,2.13,0,0,0,.34-.63A.38.38,0,0,1,840.71,590.4Z" transform="translate(-469 -299)"/></g><path id="Path_472" data-name="Path 472" class="cls-6" d="M829.6,595.89s9.76,1.3,10.64-.17" transform="translate(-469 -299)"/><path id="Path_473" data-name="Path 473" class="cls-6" d="M848.57,591.85s5.42,0,6.61,2" transform="translate(-469 -299)"/></g></svg>