<svg id="Layer_1" data-name="Layer 1" xmlns="http://www.w3.org/2000/svg" xmlns:xlink="http://www.w3.org/1999/xlink" viewBox="0 0 2033.88 1651.59"><defs><style>.cls-1{fill:#fff;}.cls-2{fill:url(#linear-gradient);}.cls-3{fill:url(#linear-gradient-2);}</style><linearGradient id="linear-gradient" x1="1.74" y1="1079.79" x2="1.97" y2="1079.42" gradientTransform="matrix(-1756.87, 1402.2, 1217.38, 1525.29, -1310770.92, -1648287.56)" gradientUnits="userSpaceOnUse"><stop offset="0" stop-color="#867eff"/><stop offset="1" stop-color="#6159e5"/></linearGradient><linearGradient id="linear-gradient-2" x1="1.72" y1="1080.56" x2="2.41" y2="1079.49" gradientTransform="matrix(-1286.31, 934.92, 784.18, 1078.91, -843775.67, -1165925.29)" xlink:href="#linear-gradient"/></defs><title>background-footer</title><rect class="cls-1" x="80.87" width="1920" height="686"/><path id="Bg_Shape" data-name="Bg Shape" class="cls-2" d="M-2.23,946.19s-13.51-16.06-35.47-44.41C-26,860.87,16.4,834,144.78,877.56c240.41,81.68,281.11-222.36,451.11-93.41s296.75-20.45,359,156.74c-6,6-585.1,468.75-585.1,468.75L251.08,1262.49l-36.55-46.3-105-131.1-69.9-86.5Z" transform="translate(80.87 -394)"/><path id="Bg_Shape-2" data-name="Bg Shape" class="cls-3" d="M-13.61,1080.63s-25.73-33.49-67.26-92.46C-51.68,905.57,38.84,853.26,297,949.51c483.51,180.25,605.5-436.22,938.41-163.84s612.13-24.35,717.56,339.92c-13.14,11.86-1261.07,920-1261.07,920L466.77,1739.17l-69.22-96.37-199.21-273L65.67,1189.72Z" transform="translate(80.87 -394)"/></svg>