<svg id="Layer_1" data-name="Layer 1" xmlns="http://www.w3.org/2000/svg" xmlns:xlink="http://www.w3.org/1999/xlink" viewBox="0 0 89.9 89.9"><defs><style>.cls-1{fill:url(#linear-gradient);}.cls-2{fill:url(#linear-gradient-2);}.cls-3{fill:url(#linear-gradient-3);}.cls-4{fill:url(#linear-gradient-4);}.cls-5{fill:url(#linear-gradient-5);}.cls-6{fill:url(#linear-gradient-6);}.cls-7{fill:url(#linear-gradient-7);}.cls-8{fill:url(#linear-gradient-8);}</style><linearGradient id="linear-gradient" x1="6.65" y1="993.02" x2="8.6" y2="966.96" gradientTransform="matrix(29.97, 0, 0, -3, -158, 2980.25)" gradientUnits="userSpaceOnUse"><stop offset="0" stop-color="#88cb88"/><stop offset="1" stop-color="#43b943"/></linearGradient><linearGradient id="linear-gradient-2" x1="4.25" y1="1077.66" x2="6.2" y2="1051.59" gradientTransform="matrix(54.69, 0, 0, -59.94, 529.79, 65055.77)" xlink:href="#linear-gradient"/><linearGradient id="linear-gradient-3" x1="10.95" y1="1062.28" x2="12.9" y2="1036.22" gradientTransform="matrix(16.48, 0, 0, -13.46, 554.51, 14803.27)" xlink:href="#linear-gradient"/><linearGradient id="linear-gradient-4" x1="18.95" y1="1064.3" x2="20.9" y2="1038.24" gradientTransform="matrix(9, 0, 0, -14.99, 596.45, 16459.49)" xlink:href="#linear-gradient"/><linearGradient id="linear-gradient-5" x1="7.24" y1="1072.21" x2="9.19" y2="1046.15" gradientTransform="matrix(26.97, 0, 0, -26.97, 569.49, 29406.06)" xlink:href="#linear-gradient"/><linearGradient id="linear-gradient-6" x1="7.24" y1="1072.21" x2="9.19" y2="1046.15" gradientTransform="matrix(26.97, 0, 0, -26.97, 538.03, 29397.06)" xlink:href="#linear-gradient"/><linearGradient id="linear-gradient-7" x1="7.24" y1="1072.21" x2="9.19" y2="1046.15" gradientTransform="matrix(26.97, 0, 0, -26.97, 600.96, 29389.57)" xlink:href="#linear-gradient"/><linearGradient id="linear-gradient-8" x1="54.1" y1="993.02" x2="56.05" y2="966.96" gradientTransform="matrix(3, 0, 0, -3, -117.55, 3034.19)" xlink:href="#linear-gradient"/></defs><title>logo-social-growth-campaign</title><g id="Group_79" data-name="Group 79"><g id="Group_78" data-name="Group 78"><rect id="Rectangle_26" data-name="Rectangle 26" class="cls-1" x="29.97" y="7.49" width="29.97" height="3"/></g></g><g id="Group_81" data-name="Group 81"><g id="Group_80" data-name="Group 80"><path id="Path_489" data-name="Path 489" class="cls-2" d="M797.17,558.19a5.26,5.26,0,0,0-5.25-5.25h-3V532h-3v21h-3.74a5.23,5.23,0,0,0-3.66,9,5.18,5.18,0,0,0-.79,6.49,5.24,5.24,0,0,0-3,4.75,5.15,5.15,0,0,0,.52,2.25H763.45a13.47,13.47,0,0,0-5.8-11.08,9,9,0,0,0,5.8-8.4,1.5,1.5,0,0,0-1.5-1.5H750v-15h-3v15a4.5,4.5,0,0,0-4.49,4.49v33h3v-33a1.5,1.5,0,0,1,1.5-1.5h13.29a6,6,0,0,1-5.8,4.5H750a1.5,1.5,0,0,0,0,3,10.49,10.49,0,0,1,10.48,10.49v1.5a1.5,1.5,0,0,0,1.5,1.5h8.77a5.14,5.14,0,0,0-.52,2.24,5.25,5.25,0,0,0,5.24,5.25v6h3v-6h6.73a5.25,5.25,0,0,0,5.24-5.25,5.08,5.08,0,0,0-.54-2.26,5.2,5.2,0,0,0,4.24-8,5.22,5.22,0,0,0,1.46-8.49A5.26,5.26,0,0,0,797.17,558.19Zm-12,24.72h-9.74a2.25,2.25,0,0,1,0-4.5h9.74a2.25,2.25,0,0,1,0,4.5Zm4.49-7.49h-9.74a2.25,2.25,0,0,1,0-4.5h9.75a2.25,2.25,0,0,1,0,4.5Zm2.25-7.5h-9.74a2.25,2.25,0,1,1,0-4.49h9.74a2.25,2.25,0,0,1,0,4.49Zm0-7.49h-9.74a2.25,2.25,0,1,1,0-4.49h9.74a2.25,2.25,0,0,1,0,4.49Z" transform="translate(-723 -502)"/></g></g><g id="Group_83" data-name="Group 83"><g id="Group_82" data-name="Group 82"><path id="Path_490" data-name="Path 490" class="cls-3" d="M745.47,521.07a1.5,1.5,0,0,0-.59-1.09l-1.56-1.18a4.09,4.09,0,0,0-8.1.75,8.58,8.58,0,0,1-3.36-1.36l-.53-.35a1.5,1.5,0,0,0-2.34,1.24v1.23a8.69,8.69,0,0,0,1.56,5l-1.12,1.13a1.5,1.5,0,0,0,1.06,2.55h7.26a5.67,5.67,0,0,0,5.61-5l1.68-1.7A1.52,1.52,0,0,0,745.47,521.07Zm-4.63,1.15a1.5,1.5,0,0,0-.44,1.06,2.68,2.68,0,0,1-2.65,2.7h-3.81a1.52,1.52,0,0,0-.31-1.66,5.65,5.65,0,0,1-1.45-2.56,11.59,11.59,0,0,0,4.54.92,1.5,1.5,0,0,0,1.5-1.5v-1.57a1.09,1.09,0,1,1,2.18-.07v.07a1.52,1.52,0,0,0,.59,1.19l.72.54Z" transform="translate(-723 -502)"/></g></g><g id="Group_85" data-name="Group 85"><g id="Group_84" data-name="Group 84"><path id="Path_491" data-name="Path 491" class="cls-4" d="M772.44,527.47v-3H768a1.5,1.5,0,0,0-1.5,1.5v4.5h-3v3h3v6h3v-6h3v-3h-3v-3Z" transform="translate(-723 -502)"/></g></g><g id="Group_87" data-name="Group 87"><g id="Group_86" data-name="Group 86"><path id="Path_492" data-name="Path 492" class="cls-5" d="M776.94,518.48H759a4.51,4.51,0,0,0-4.5,4.5v18a4.5,4.5,0,0,0,4.5,4.49h18a4.49,4.49,0,0,0,4.49-4.49V523A4.49,4.49,0,0,0,776.94,518.48Zm1.5,22.47a1.5,1.5,0,0,1-1.5,1.5H759a1.5,1.5,0,0,1-1.5-1.5V523a1.5,1.5,0,0,1,1.5-1.5h18a1.5,1.5,0,0,1,1.5,1.5Z" transform="translate(-723 -502)"/></g></g><g id="Group_89" data-name="Group 89"><g id="Group_88" data-name="Group 88"><path id="Path_493" data-name="Path 493" class="cls-6" d="M745.47,509.49h-18A4.49,4.49,0,0,0,723,514v18a4.49,4.49,0,0,0,4.49,4.49h18A4.49,4.49,0,0,0,750,532V514A4.49,4.49,0,0,0,745.47,509.49ZM747,532a1.5,1.5,0,0,1-1.5,1.5h-18A1.5,1.5,0,0,1,726,532V514a1.5,1.5,0,0,1,1.5-1.5h18A1.5,1.5,0,0,1,747,514Z" transform="translate(-723 -502)"/></g></g><g id="Group_91" data-name="Group 91"><g id="Group_90" data-name="Group 90"><path id="Path_494" data-name="Path 494" class="cls-7" d="M808.4,502h-18a4.49,4.49,0,0,0-4.49,4.49v18a4.49,4.49,0,0,0,4.49,4.5h18a4.49,4.49,0,0,0,4.5-4.5v-18A4.5,4.5,0,0,0,808.4,502Zm1.5,22.47a1.5,1.5,0,0,1-1.5,1.5h-18a1.5,1.5,0,0,1-1.5-1.5V517h3.15a7.49,7.49,0,0,0,14.68,0h3.15Zm-15-9a4.5,4.5,0,1,1,4.49,4.5h0a4.49,4.49,0,0,1-4.49-4.5Zm15-1.5h-3.15a7.49,7.49,0,0,0-14.68,0h-3.14v-7.49a1.5,1.5,0,0,1,1.5-1.5h18a1.5,1.5,0,0,1,1.5,1.5Z" transform="translate(-723 -502)"/></g></g><g id="Group_93" data-name="Group 93"><g id="Group_92" data-name="Group 92"><rect id="Rectangle_27" data-name="Rectangle 27" class="cls-8" x="43.45" y="61.43" width="3" height="3"/></g></g></svg>