<svg id="Layer_1" data-name="Layer 1" xmlns="http://www.w3.org/2000/svg" xmlns:xlink="http://www.w3.org/1999/xlink" viewBox="0 0 90.14 84.13"><defs><style>.cls-1{fill:url(#linear-gradient);}.cls-2{fill:url(#linear-gradient-2);}.cls-3{fill:url(#linear-gradient-3);}.cls-4{fill:url(#linear-gradient-4);}.cls-5{fill:url(#linear-gradient-5);}.cls-6{fill:url(#linear-gradient-6);}.cls-7{fill:url(#linear-gradient-7);}.cls-8{fill:url(#linear-gradient-8);}.cls-9{fill:url(#linear-gradient-9);}.cls-10{fill:url(#linear-gradient-10);}.cls-11{fill:url(#linear-gradient-11);}.cls-12{fill:url(#linear-gradient-12);}.cls-13{fill:url(#linear-gradient-13);}</style><linearGradient id="linear-gradient" x1="3.13" y1="1077.96" x2="3.33" y2="1076.52" gradientTransform="matrix(90.14, 0, 0, -84.13, 474.86, 91178.45)" gradientUnits="userSpaceOnUse"><stop offset="0" stop-color="#fc6681"/><stop offset="1" stop-color="#fc6681"/></linearGradient><linearGradient id="linear-gradient-2" x1="-7.91" y1="980.46" x2="-7.71" y2="979.02" gradientTransform="matrix(8.5, 0, 0, -3.01, 801.47, 3509.35)" xlink:href="#linear-gradient"/><linearGradient id="linear-gradient-3" x1="-1.7" y1="980.46" x2="-1.5" y2="979.02" gradientTransform="matrix(25.5, 0, 0, -3.01, 787.99, 3507.85)" xlink:href="#linear-gradient"/><linearGradient id="linear-gradient-4" x1="-4.81" y1="980.46" x2="-4.6" y2="979.02" gradientTransform="matrix(12.75, 0, 0, -3.01, 805.61, 3498.84)" xlink:href="#linear-gradient"/><linearGradient id="linear-gradient-5" x1="-6.05" y1="980.46" x2="-5.85" y2="979.02" gradientTransform="matrix(10.62, 0, 0, -3.01, 862.13, 3508.6)" xlink:href="#linear-gradient"/><linearGradient id="linear-gradient-6" x1="-6.05" y1="980.46" x2="-5.85" y2="979.02" gradientTransform="matrix(10.62, 0, 0, -3.01, 865.13, 3514.62)" xlink:href="#linear-gradient"/><linearGradient id="linear-gradient-7" x1="-4.81" y1="980.46" x2="-4.6" y2="979.02" gradientTransform="matrix(12.75, 0, 0, -3.01, 828.14, 3471.8)" xlink:href="#linear-gradient"/><linearGradient id="linear-gradient-8" x1="-4.81" y1="980.46" x2="-4.6" y2="979.02" gradientTransform="matrix(12.75, 0, 0, -3.01, 841.66, 3468.79)" xlink:href="#linear-gradient"/><linearGradient id="linear-gradient-9" x1="-7.91" y1="980.46" x2="-7.71" y2="979.02" gradientTransform="matrix(8.5, 0, 0, -3.01, 837.52, 3479.31)" xlink:href="#linear-gradient"/><linearGradient id="linear-gradient-10" x1="-7.89" y1="980.46" x2="-7.69" y2="979.02" gradientTransform="matrix(8.52, 0, 0, -3.01, 845, 3461.29)" xlink:href="#linear-gradient"/><linearGradient id="linear-gradient-11" x1="53.98" y1="991.32" x2="54.19" y2="989.88" gradientTransform="matrix(3.01, 0, 0, -3.01, -150.49, 2984.41)" xlink:href="#linear-gradient"/><linearGradient id="linear-gradient-12" x1="53.98" y1="991.32" x2="54.19" y2="989.88" gradientTransform="matrix(3.01, 0, 0, -3.01, -144.48, 2984.41)" xlink:href="#linear-gradient"/><linearGradient id="linear-gradient-13" x1="53.98" y1="991.32" x2="54.19" y2="989.88" gradientTransform="matrix(3.01, 0, 0, -3.01, -138.47, 2984.41)" xlink:href="#linear-gradient"/></defs><title>logo-branding-media</title><g id="_003-responsive" data-name=" 003-responsive"><g id="Group_95" data-name="Group 95"><g id="Group_94" data-name="Group 94"><path id="Path_495" data-name="Path 495" class="cls-1" d="M808.63,545.56v-33a7.51,7.51,0,0,0-7.51-7.51H735a7.51,7.51,0,0,0-7.51,7.51v22.54a4.5,4.5,0,0,0-4.51,4.5v45.07a4.51,4.51,0,0,0,4.51,4.51h33a4.5,4.5,0,0,0,4.5-4.51h12.59a4.51,4.51,0,0,0,4.51-4.51,4.3,4.3,0,0,0-.16-1.18l-3-10.83h8.55v16.52a4.51,4.51,0,0,0,4.51,4.51h16.52a4.51,4.51,0,0,0,4.51-4.51V550.07A4.51,4.51,0,0,0,808.63,545.56Zm-46.57,39.06a1.5,1.5,0,0,1-1.5,1.5h-33a1.5,1.5,0,0,1-1.5-1.5v-3h36Zm0-6H726V545.56h36.06Zm0-36.05H726v-3a1.5,1.5,0,0,1,1.5-1.5h33.06a1.5,1.5,0,0,1,1.5,1.5Zm17,37.16a1.5,1.5,0,0,1-1,1.85,1.84,1.84,0,0,1-.41,0H765.06v-3H778.8Zm-14-4.11V568.1h10.88l2,7.51Zm22.54-10.52H765.06v-9H787.6Zm0-15v3H765.06V539.55a4.49,4.49,0,0,0-4.5-4.5h-30V512.51A4.51,4.51,0,0,1,735,508h66.1a4.52,4.52,0,0,1,4.51,4.51v33H792.11A4.52,4.52,0,0,0,787.6,550.07Zm22.53,34.55a1.5,1.5,0,0,1-1.5,1.5H792.11a1.5,1.5,0,0,1-1.5-1.5v-3h19.53Zm0-6H790.6V556.08h19.53Zm0-25.54H790.6v-3a1.5,1.5,0,0,1,1.5-1.5h16.53a1.5,1.5,0,0,1,1.5,1.5Z" transform="translate(-723 -505)"/></g></g><g id="Group_97" data-name="Group 97"><g id="Group_96" data-name="Group 96"><rect id="Rectangle_28" data-name="Rectangle 28" class="cls-2" x="730.77" y="563.59" width="8.5" height="3.01" transform="translate(-907.3 180.25) rotate(-45)"/></g></g><g id="Group_99" data-name="Group 99"><g id="Group_98" data-name="Group 98"><rect id="Rectangle_29" data-name="Rectangle 29" class="cls-3" x="734.29" y="562.09" width="25.5" height="3.01" transform="translate(-902.72 188.31) rotate(-45)"/></g></g><g id="Group_101" data-name="Group 101"><g id="Group_100" data-name="Group 100"><rect id="Rectangle_30" data-name="Rectangle 30" class="cls-4" x="739.16" y="553.07" width="12.75" height="3.01" transform="translate(-896.78 184.6) rotate(-45)"/></g></g><g id="Group_103" data-name="Group 103"><g id="Group_102" data-name="Group 102"><rect id="Rectangle_31" data-name="Rectangle 31" class="cls-5" x="793.55" y="562.84" width="10.62" height="3.01" transform="translate(-888.07 225.17) rotate(-45)"/></g></g><g id="Group_105" data-name="Group 105"><g id="Group_104" data-name="Group 104"><rect id="Rectangle_32" data-name="Rectangle 32" class="cls-6" x="796.56" y="568.86" width="10.62" height="3.01" transform="translate(-891.44 229.06) rotate(-45)"/></g></g><g id="Group_107" data-name="Group 107"><g id="Group_106" data-name="Group 106"><rect id="Rectangle_33" data-name="Rectangle 33" class="cls-7" x="761.69" y="526.03" width="12.75" height="3.01" transform="translate(-871.06 192.62) rotate(-45)"/></g></g><g id="Group_109" data-name="Group 109"><g id="Group_108" data-name="Group 108"><rect id="Rectangle_34" data-name="Rectangle 34" class="cls-8" x="775.22" y="523.03" width="12.75" height="3.01" transform="translate(-864.98 201.3) rotate(-45)"/></g></g><g id="Group_111" data-name="Group 111"><g id="Group_110" data-name="Group 110"><rect id="Rectangle_35" data-name="Rectangle 35" class="cls-9" x="766.82" y="533.55" width="8.5" height="3.01" transform="translate(-875.49 196.94) rotate(-45)"/></g></g><g id="Group_113" data-name="Group 113"><g id="Group_112" data-name="Group 112"><rect id="Rectangle_36" data-name="Rectangle 36" class="cls-10" x="774.32" y="515.53" width="8.52" height="3.01" transform="translate(-860.55 196.98) rotate(-45)"/></g></g><g id="Group_115" data-name="Group 115"><g id="Group_114" data-name="Group 114"><rect id="Rectangle_37" data-name="Rectangle 37" class="cls-11" x="10.52" y="6.01" width="3.01" height="3.01"/></g></g><g id="Group_117" data-name="Group 117"><g id="Group_116" data-name="Group 116"><rect id="Rectangle_38" data-name="Rectangle 38" class="cls-12" x="16.52" y="6.01" width="3.01" height="3.01"/></g></g><g id="Group_119" data-name="Group 119"><g id="Group_118" data-name="Group 118"><rect id="Rectangle_39" data-name="Rectangle 39" class="cls-13" x="22.53" y="6.01" width="3.01" height="3.01"/></g></g></g></svg>