<svg id="Layer_1" data-name="Layer 1" xmlns="http://www.w3.org/2000/svg" xmlns:xlink="http://www.w3.org/1999/xlink" viewBox="0 0 88.4 79.09"><defs><style>.cls-1{fill:url(#linear-gradient);}.cls-2{fill:url(#linear-gradient-2);}</style><linearGradient id="linear-gradient" x1="2.67" y1="1078.21" x2="3.55" y2="1076.7" gradientTransform="matrix(88.4, 0, 0, -79.09, 476.6, 85725.89)" gradientUnits="userSpaceOnUse"><stop offset="0" stop-color="#ffd037"/><stop offset="1" stop-color="#eab302"/><stop offset="1" stop-color="#e9b200"/></linearGradient><linearGradient id="linear-gradient-2" x1="3.38" y1="1073.65" x2="4.25" y2="1072.14" gradientTransform="matrix(62.69, 0, 0, -34.07, 515.4, 37075.43)" xlink:href="#linear-gradient"/></defs><title>logo-content-marketing-services</title><g id="_008-computer" data-name=" 008-computer"><g id="Group_128" data-name="Group 128"><g id="Group_127" data-name="Group 127"><path id="Path_527" data-name="Path 527" class="cls-1" d="M800.05,507H736.36c-6,0-12.36,3.25-12.36,12.36v42.7c0,9.1,6.39,12.35,12.36,12.35h23.57v7.88H756a1.9,1.9,0,1,0,0,3.8h25.1a1.9,1.9,0,0,0,0-3.8h-4.64v-7.88h23.58c9.1,0,12.35-6.38,12.35-12.35v-42.7C812.4,510.25,806,507,800.05,507Zm-27.38,75.29h-8.94v-7.88h8.94v7.88Zm35.93-20.23c0,2.56-.84,8.55-8.56,8.55H736.36c-2.57,0-8.56-.84-8.56-8.55v-2.72h80.8Zm0-6.5H727.8V519.43c0-7.71,6-8.55,8.56-8.55h63.69c2.56,0,8.55.84,8.55,8.55Z" transform="translate(-724 -507)"/></g></g><g id="Group_130" data-name="Group 130"><g id="Group_129" data-name="Group 129"><path id="Path_528" data-name="Path 528" class="cls-2" d="M799,516a1.9,1.9,0,0,0-2.66.38h.1l-14.19,19-6.65-8.65a1.89,1.89,0,0,0-2.66-.36,1.33,1.33,0,0,0-.27.26l-10.84,12.32-8-13.57a1.89,1.89,0,0,0-2.59-.67,2,2,0,0,0-.66.65l-13.12,21.2a1.9,1.9,0,0,0,2.92,2.43,1.92,1.92,0,0,0,.32-.53l11.4-18.6,7.6,13.1a1.92,1.92,0,0,0,3.07.3l11.06-12.37,6.79,8.82a2.19,2.19,0,0,0,1.52.74,1.91,1.91,0,0,0,1.5-.76l15.69-21A1.9,1.9,0,0,0,799,516Z" transform="translate(-724 -507)"/></g></g></g></svg>