<svg id="Layer_1" data-name="Layer 1" xmlns="http://www.w3.org/2000/svg" xmlns:xlink="http://www.w3.org/1999/xlink" viewBox="0 0 85.3 83.09"><defs><style>.cls-1{fill:url(#linear-gradient);}.cls-2{fill:url(#linear-gradient-2);}.cls-3{fill:url(#linear-gradient-3);}.cls-4{fill:url(#linear-gradient-4);}.cls-5{fill:url(#linear-gradient-5);}.cls-6{fill:url(#linear-gradient-6);}.cls-7{fill:url(#linear-gradient-7);}.cls-8{fill:url(#linear-gradient-8);}.cls-9{fill:url(#linear-gradient-9);}</style><linearGradient id="linear-gradient" x1="5.09" y1="1069.84" x2="5.51" y2="1068.7" gradientTransform="matrix(42.72, 0, 0, -24.36, 538.14, 26577.81)" gradientUnits="userSpaceOnUse"><stop offset="0" stop-color="#fe7ebb"/><stop offset="1" stop-color="#fe3595"/></linearGradient><linearGradient id="linear-gradient-2" x1="3.52" y1="1077.42" x2="3.94" y2="1076.28" gradientTransform="matrix(71, 0, 0, -77.5, 494, 84022.54)" xlink:href="#linear-gradient"/><linearGradient id="linear-gradient-3" x1="4.01" y1="1068.81" x2="4.43" y2="1067.68" gradientTransform="matrix(61.24, 0, 0, -22.25, 516.93, 24288.33)" xlink:href="#linear-gradient"/><linearGradient id="linear-gradient-4" x1="22.49" y1="1060.98" x2="22.91" y2="1059.84" gradientTransform="matrix(7.57, 0, 0, -13.54, 573.66, 14911.96)" xlink:href="#linear-gradient"/><linearGradient id="linear-gradient-5" x1="22.49" y1="1067.37" x2="22.91" y2="1066.24" gradientTransform="matrix(7.57, 0, 0, -19.92, 585.12, 21806.68)" xlink:href="#linear-gradient"/><linearGradient id="linear-gradient-6" x1="22.49" y1="1060.98" x2="22.91" y2="1059.84" gradientTransform="matrix(7.57, 0, 0, -13.54, 596.59, 14911.96)" xlink:href="#linear-gradient"/><linearGradient id="linear-gradient-7" x1="22.39" y1="1037.12" x2="22.81" y2="1035.98" gradientTransform="matrix(7.57, 0, 0, -6.17, 608.05, 6953.46)" xlink:href="#linear-gradient"/><linearGradient id="linear-gradient-8" x1="5.78" y1="1075.2" x2="6.21" y2="1074.06" gradientTransform="matrix(36.08, 0, 0, -47.08, 578.14, 51153.04)" xlink:href="#linear-gradient"/><linearGradient id="linear-gradient-9" x1="8.08" y1="1069.55" x2="8.51" y2="1068.41" gradientTransform="matrix(23.73, 0, 0, -23.73, 594.96, 25911.65)" xlink:href="#linear-gradient"/></defs><title>logo-influencer-marketing</title><g id="_007-analysis" data-name=" 007-analysis"><path id="Path_518" data-name="Path 518" class="cls-1" d="M779.4,526.07a4.17,4.17,0,1,0-3.32-1.66L769.24,534a4.16,4.16,0,0,0-4.14.91l-4.56-2.59a4.16,4.16,0,1,0-8.14-1.75,4.3,4.3,0,0,0,0,1.75l-4.56,2.59a4.15,4.15,0,1,0,1.24,2.17l4.56-2.59a4.15,4.15,0,0,0,5.67,0l4.56,2.59a4.16,4.16,0,1,0,7.4-1.63l6.84-9.56A4.05,4.05,0,0,0,779.4,526.07Zm0-5.83a1.67,1.67,0,1,1,0,3.33,1.67,1.67,0,0,1,0-3.33ZM745,539.59a1.67,1.67,0,1,1,1.67-1.67,1.66,1.66,0,0,1-1.67,1.67Zm11.47-6.51a1.67,1.67,0,1,1,1.67-1.67,1.67,1.67,0,0,1-1.67,1.67Zm11.47,6.51a1.67,1.67,0,1,1,1.66-1.67,1.67,1.67,0,0,1-1.66,1.67Z" transform="translate(-725 -505)"/><path id="Path_519" data-name="Path 519" class="cls-2" d="M794.76,566.7H728.53a1,1,0,0,1-1-1V514.12a1,1,0,0,1,1-1h5.89a1.25,1.25,0,1,0,0-2.5h-5.89a3.53,3.53,0,0,0-3.53,3.53v51.54a3.54,3.54,0,0,0,3.53,3.54h8.62V572a2.84,2.84,0,0,0,2.84,2.83h12.5l-5.88,11.49a1.25,1.25,0,1,0,2.22,1.14l6.47-12.63h13.81l6.47,12.63a1.25,1.25,0,1,0,2.23-1.14l-5.89-11.49h12.5a2.84,2.84,0,0,0,2.84-2.84V569.2h7.49a1.25,1.25,0,0,0,0-2.5Zm-10,5.25a.35.35,0,0,1-.35.34H740a.34.34,0,0,1-.34-.34h0V569.2h45.12Z" transform="translate(-725 -505)"/><path id="Path_520" data-name="Path 520" class="cls-3" d="M739.42,513.09h56.46a1,1,0,0,1,1,1V526a1.25,1.25,0,0,0,2.5,0V514.12a3.53,3.53,0,0,0-3.53-3.53H769.14v-2.46A3.13,3.13,0,0,0,766,505h-7.6a3.14,3.14,0,0,0-3.14,3.13v2.46H739.42a1.25,1.25,0,1,0,0,2.5Zm18.35-5a.64.64,0,0,1,.64-.63H766a.63.63,0,0,1,.63.63v2.46h-8.87v-2.46Z" transform="translate(-725 -505)"/><path id="Path_521" data-name="Path 521" class="cls-4" d="M742.47,548.48a1.25,1.25,0,0,0-1.25,1.25v11a1.25,1.25,0,0,0,1.25,1.25h5.07a1.25,1.25,0,0,0,1.25-1.25v-11a1.25,1.25,0,0,0-1.25-1.25Zm3.82,11h-2.57V551h2.57Z" transform="translate(-725 -505)"/><path id="Path_522" data-name="Path 522" class="cls-5" d="M753.94,542.09a1.25,1.25,0,0,0-1.25,1.25v17.42a1.25,1.25,0,0,0,1.25,1.25H759a1.24,1.24,0,0,0,1.24-1.25V543.34A1.24,1.24,0,0,0,759,542.1Zm3.82,17.43h-2.57V544.59h2.57Z" transform="translate(-725 -505)"/><path id="Path_523" data-name="Path 523" class="cls-6" d="M765.4,548.48a1.24,1.24,0,0,0-1.24,1.25v11A1.24,1.24,0,0,0,765.4,562h5.07a1.25,1.25,0,0,0,1.25-1.25v-11a1.25,1.25,0,0,0-1.25-1.25Zm3.82,11h-2.57V551h2.57Z" transform="translate(-725 -505)"/><path id="Path_524" data-name="Path 524" class="cls-7" d="M776.87,555.85a1.25,1.25,0,0,0-1.25,1.25v3.66a1.27,1.27,0,0,0,1.25,1.26h5.07a1.25,1.25,0,0,0,0-2.5h-3.82V557.1a1.25,1.25,0,0,0-1.25-1.25Z" transform="translate(-725 -505)"/><path id="Path_525" data-name="Path 525" class="cls-8" d="M809.64,567.87l-7.16-12.41a16.29,16.29,0,1,0-8.23,4.75l7.17,12.41a4.75,4.75,0,1,0,8.27-4.67l-.05-.08ZM787,557.65a13.83,13.83,0,1,1,10.49-1.38A13.81,13.81,0,0,1,787,557.65Zm19.69,14.54a2.26,2.26,0,0,1-3.08-.82l-6.89-11.94a16.63,16.63,0,0,0,3.9-2.25l6.9,11.94a2.23,2.23,0,0,1-.82,3.07h0Z" transform="translate(-725 -505)"/><path id="Path_526" data-name="Path 526" class="cls-9" d="M801.88,547.82a11.87,11.87,0,0,0-.59-8.57,1.27,1.27,0,0,0-1.67-.6,1.25,1.25,0,0,0-.59,1.67,9.37,9.37,0,1,1-2.83-3.49,1.27,1.27,0,0,0,1.76-.22,1.25,1.25,0,0,0-.22-1.75l0,0a11.84,11.84,0,1,0,4.17,13Z" transform="translate(-725 -505)"/></g></svg>