<svg id="Layer_1" data-name="Layer 1" xmlns="http://www.w3.org/2000/svg" xmlns:xlink="http://www.w3.org/1999/xlink" viewBox="0 0 90.12 90"><defs><style>.cls-1{fill:url(#linear-gradient);}.cls-2{fill:url(#linear-gradient-2);}.cls-3{fill:url(#linear-gradient-3);}.cls-4{fill:url(#linear-gradient-4);}.cls-5{fill:url(#linear-gradient-5);}.cls-6{fill:url(#linear-gradient-6);}.cls-7{fill:url(#linear-gradient-7);}.cls-8{fill:url(#linear-gradient-8);}.cls-9{fill:url(#linear-gradient-9);}.cls-10{fill:url(#linear-gradient-10);}.cls-11{fill:url(#linear-gradient-11);}.cls-12{fill:url(#linear-gradient-12);}.cls-13{fill:url(#linear-gradient-13);}.cls-14{fill:url(#linear-gradient-14);}.cls-15{fill:url(#linear-gradient-15);}</style><linearGradient id="linear-gradient" x1="4.9" y1="1074.4" x2="5.98" y2="1073.37" gradientTransform="matrix(40.7, 0, 0, -40.69, 573.72, 44269.16)" gradientUnits="userSpaceOnUse"><stop offset="0" stop-color="#7e76f9"/><stop offset="1" stop-color="#b2adfc"/></linearGradient><linearGradient id="linear-gradient-2" x1="7.81" y1="1069.48" x2="8.9" y2="1068.45" gradientTransform="matrix(23.25, 0, 0, -23.25, 599.88, 25430.71)" xlink:href="#linear-gradient"/><linearGradient id="linear-gradient-3" x1="14.6" y1="1058" x2="15.69" y2="1056.97" gradientTransform="matrix(11.63, 0, 0, -11.63, 617.32, 12868.81)" xlink:href="#linear-gradient"/><linearGradient id="linear-gradient-4" x1="5.47" y1="1075.13" x2="6.56" y2="1074.09" gradientTransform="matrix(34.88, 0, 0, -46.4, 557.73, 50388.51)" xlink:href="#linear-gradient"/><linearGradient id="linear-gradient-5" x1="6.45" y1="1073.89" x2="7.54" y2="1072.86" gradientTransform="matrix(29.07, 0, 0, -37.79, 535.93, 41136.14)" xlink:href="#linear-gradient"/><linearGradient id="linear-gradient-6" x1="10.07" y1="989.11" x2="11.16" y2="988.08" gradientTransform="matrix(17.44, 0, 0, -2.91, 553.37, 3435.62)" xlink:href="#linear-gradient"/><linearGradient id="linear-gradient-7" x1="55.37" y1="989.11" x2="56.45" y2="988.08" gradientTransform="matrix(2.91, 0, 0, -2.91, 567.91, 3441.43)" xlink:href="#linear-gradient"/><linearGradient id="linear-gradient-8" x1="14.6" y1="989.11" x2="15.69" y2="988.08" gradientTransform="matrix(11.63, 0, 0, -2.91, 565, 3441.43)" xlink:href="#linear-gradient"/><linearGradient id="linear-gradient-9" x1="10.07" y1="989.11" x2="11.16" y2="988.08" gradientTransform="matrix(17.44, 0, 0, -2.91, 553.37, 3447.24)" xlink:href="#linear-gradient"/><linearGradient id="linear-gradient-10" x1="10.07" y1="989.11" x2="11.16" y2="988.08" gradientTransform="matrix(17.44, 0, 0, -2.91, 553.37, 3453.06)" xlink:href="#linear-gradient"/><linearGradient id="linear-gradient-11" x1="55.37" y1="989.11" x2="56.45" y2="988.08" gradientTransform="matrix(2.91, 0, 0, -2.91, 582.44, 3458.87)" xlink:href="#linear-gradient"/><linearGradient id="linear-gradient-12" x1="14.6" y1="989.11" x2="15.69" y2="988.08" gradientTransform="matrix(11.63, 0, 0, -2.91, 559.19, 3458.87)" xlink:href="#linear-gradient"/><linearGradient id="linear-gradient-13" x1="10.54" y1="1061.44" x2="11.63" y2="1060.41" gradientTransform="matrix(16.59, 0, 0, -13.68, 578.33, 15088.17)" xlink:href="#linear-gradient"/><linearGradient id="linear-gradient-14" x1="10.49" y1="1073.47" x2="11.58" y2="1072.44" gradientTransform="matrix(16.59, 0, 0, -35.91, 561.49, 39065.07)" xlink:href="#linear-gradient"/><linearGradient id="linear-gradient-15" x1="10.31" y1="1071.5" x2="11.39" y2="1070.47" gradientTransform="matrix(17.01, 0, 0, -28.21, 609.03, 30754.31)" xlink:href="#linear-gradient"/></defs><title>logo-social-media-management</title><path id="Path_474" data-name="Path 474" class="cls-1" d="M813.12,577.25v-11l-4.2-1.07-.09-.21,2.21-3.73-7.76-7.76-3.73,2.21-.21-.09-1.08-4.2h-11l-1.07,4.2-.21.09-3.73-2.21-7.76,7.76,2.21,3.73-.09.21-4.2,1.08v11l4.2,1.08a1.89,1.89,0,0,0,.09.21l-2.22,3.73,7.76,7.76,3.73-2.21.22.09,1.07,4.2h11l1.07-4.2.21-.09,3.73,2.21,7.77-7.76-2.22-3.73.09-.21Zm-5.73,4.56-4.57,4.57-3.11-1.84-.7.33a13.88,13.88,0,0,1-1.38.58l-.74.26-.89,3.5h-6.46l-.89-3.5-.74-.26a13.88,13.88,0,0,1-1.38-.58l-.7-.33-3.11,1.84-4.57-4.57,1.85-3.1-.34-.71a13.81,13.81,0,0,1-.57-1.38l-.26-.73-3.5-.89v-6.47l3.5-.89.26-.73a11.93,11.93,0,0,1,.57-1.39l.34-.7-1.85-3.1,4.57-4.57,3.1,1.84.7-.34c.45-.21.92-.4,1.39-.57l.73-.26.89-3.5H796l.89,3.5.73.26q.71.25,1.38.57l.7.34,3.11-1.84,4.57,4.57-1.84,3.1.33.7a14.05,14.05,0,0,1,.58,1.39l.26.73,3.5.89V575l-3.5.9-.26.73a13.88,13.88,0,0,1-.58,1.38l-.33.7Z" transform="translate(-723 -502.11)"/><path id="Path_475" data-name="Path 475" class="cls-2" d="M792.76,560.14a11.63,11.63,0,1,0,11.63,11.62A11.62,11.62,0,0,0,792.76,560.14Zm0,20.34a8.72,8.72,0,1,1,8.72-8.72A8.72,8.72,0,0,1,792.76,580.48Z" transform="translate(-723 -502.11)"/><path id="Path_476" data-name="Path 476" class="cls-3" d="M792.76,566a5.82,5.82,0,1,0,5.82,5.81h0A5.82,5.82,0,0,0,792.76,566Zm0,8.72a2.91,2.91,0,1,1,2.91-2.91A2.9,2.9,0,0,1,792.76,574.67Z" transform="translate(-723 -502.11)"/><path id="Path_477" data-name="Path 477" class="cls-4" d="M759.81,526.61a8.67,8.67,0,0,0,2.43,3.67v1.24l-6.91,2.59a7.29,7.29,0,0,0-4.72,6.8v7.6H785.5v-7.6a7.32,7.32,0,0,0-4.72-6.8l-6.91-2.59v-1.24a8.67,8.67,0,0,0,2.43-3.67,5.82,5.82,0,0,0,4.84-5.72v-5.81a13.08,13.08,0,0,0-26.16,0v5.82A5.8,5.8,0,0,0,759.81,526.61ZM771,532.12,768.05,537l-2.9-4.84V532a8.53,8.53,0,0,0,5.81,0Zm-7.89,2.19,2.93,4.88-2.91,1.46L761.21,535Zm19.52,6.6v4.69H753.52v-4.69a4.37,4.37,0,0,1,2.83-4.08l2.14-.8,2.9,8.72,6.66-3.34,6.67,3.34,2.9-8.72,2.14.8a4.37,4.37,0,0,1,2.83,4.08ZM774.9,535,773,540.64l-2.91-1.45,2.93-4.88Zm-6.85-5.39a5.81,5.81,0,0,1-5.81-5.81v-5.91a11.2,11.2,0,0,0,5.81-2.32,11.27,11.27,0,0,0,5.82,2.32v5.91a5.81,5.81,0,0,1-5.82,5.81Zm8.72-6.21v-5a2.88,2.88,0,0,1,0,5Zm-8.72-18.49a10.18,10.18,0,0,1,10.18,10.17v.81a5.62,5.62,0,0,0-2.91-.81h-.25a8.42,8.42,0,0,1-6-2.48l-1-1-1,1a8.42,8.42,0,0,1-6,2.48h-.25a5.82,5.82,0,0,0-2.91.81v-.81a10.18,10.18,0,0,1,10.17-10.17Zm-8.72,13.48v5a2.88,2.88,0,0,1-1.06-3.93A2.79,2.79,0,0,1,759.33,518.39Z" transform="translate(-723 -502.11)"/><path id="Path_478" data-name="Path 478" class="cls-5" d="M723,592.11h29.07V554.32H723Zm2.91-34.88h23.25v32H725.91Z" transform="translate(-723 -502.11)"/><path id="Path_479" data-name="Path 479" class="cls-6" d="M728.81,560.14h17.45V563H728.81Z" transform="translate(-723 -502.11)"/><path id="Path_480" data-name="Path 480" class="cls-7" d="M728.81,566h2.91v2.91h-2.91Z" transform="translate(-723 -502.11)"/><path id="Path_481" data-name="Path 481" class="cls-8" d="M734.63,566h11.62v2.91H734.63Z" transform="translate(-723 -502.11)"/><path id="Path_482" data-name="Path 482" class="cls-9" d="M728.81,571.76h17.45v2.91H728.81Z" transform="translate(-723 -502.11)"/><path id="Path_483" data-name="Path 483" class="cls-10" d="M728.81,577.58h17.45v2.9H728.81Z" transform="translate(-723 -502.11)"/><path id="Path_484" data-name="Path 484" class="cls-11" d="M743.35,583.39h2.9v2.91h-2.9Z" transform="translate(-723 -502.11)"/><path id="Path_485" data-name="Path 485" class="cls-12" d="M728.81,583.39h11.63v2.91H728.81Z" transform="translate(-723 -502.11)"/><path id="Path_486" data-name="Path 486" class="cls-13" d="M761.82,567l-2.06-2.06-6.84,6.84,6.84,6.85,2.06-2.06-3.34-3.33h11v-2.91h-11Z" transform="translate(-723 -502.11)"/><path id="Path_487" data-name="Path 487" class="cls-14" d="M739,525.26a1.45,1.45,0,0,1,1.45-1.46h6.67l-3.34,3.33,2.06,2.06,6.84-6.84-6.84-6.84-2.06,2,3.34,3.34h-6.67a4.36,4.36,0,0,0-4.36,4.36v26.16H739Z" transform="translate(-723 -502.11)"/><path id="Path_488" data-name="Path 488" class="cls-15" d="M792.76,525.25v18.3l-3.33-3.34-2,2.06,6.84,6.84,6.84-6.84L799,540.21l-3.33,3.34v-18.3a4.37,4.37,0,0,0-4.36-4.36H784v2.91h7.27A1.45,1.45,0,0,1,792.76,525.25Z" transform="translate(-723 -502.11)"/></svg>