<svg id="Layer_1" data-name="Layer 1" xmlns="http://www.w3.org/2000/svg" xmlns:xlink="http://www.w3.org/1999/xlink" viewBox="0 0 85.09 85.09"><defs><style>.cls-1{fill:url(#linear-gradient);}.cls-2{fill:url(#linear-gradient-2);}.cls-3{fill:url(#linear-gradient-3);}.cls-4{fill:url(#linear-gradient-4);}.cls-5{fill:url(#linear-gradient-5);}.cls-6{fill:url(#linear-gradient-6);}.cls-7{fill:url(#linear-gradient-7);}.cls-8{fill:url(#linear-gradient-8);}.cls-9{fill:url(#linear-gradient-9);}.cls-10{fill:url(#linear-gradient-10);}.cls-11{fill:url(#linear-gradient-11);}.cls-12{fill:url(#linear-gradient-12);}.cls-13{fill:url(#linear-gradient-13);}.cls-14{fill:url(#linear-gradient-14);}.cls-15{fill:url(#linear-gradient-15);}</style><linearGradient id="linear-gradient" x1="4.62" y1="1052.38" x2="5.63" y2="1045.61" gradientTransform="matrix(43.96, 0, 0, -8.51, 540.9, 9481.48)" gradientUnits="userSpaceOnUse"><stop offset="0" stop-color="#fc6681"/><stop offset="1" stop-color="#fb294f"/></linearGradient><linearGradient id="linear-gradient-2" x1="12.23" y1="1065.04" x2="13.24" y2="1058.27" gradientTransform="matrix(14.18, 0, 0, -14.19, 587.69, 15606.3)" xlink:href="#linear-gradient"/><linearGradient id="linear-gradient-3" x1="19.81" y1="1065.04" x2="20.81" y2="1058.27" gradientTransform="matrix(8.51, 0, 0, -14.18, 576.34, 15597.44)" xlink:href="#linear-gradient"/><linearGradient id="linear-gradient-4" x1="57.4" y1="1056.91" x2="58.4" y2="1050.14" gradientTransform="matrix(2.84, 0, 0, -9.93, 620.31, 11005.82)" xlink:href="#linear-gradient"/><linearGradient id="linear-gradient-5" x1="57.4" y1="989.15" x2="58.4" y2="982.38" gradientTransform="matrix(2.84, 0, 0, -2.84, 620.31, 3336.17)" xlink:href="#linear-gradient"/><linearGradient id="linear-gradient-6" x1="3.65" y1="1076.71" x2="4.66" y2="1069.94" gradientTransform="matrix(59.56, 0, 0, -36.87, 518.2, 40121.99)" xlink:href="#linear-gradient"/><linearGradient id="linear-gradient-7" x1="13.52" y1="989.15" x2="14.52" y2="982.38" gradientTransform="matrix(12.76, 0, 0, -2.84, 590.53, 3329.08)" xlink:href="#linear-gradient"/><linearGradient id="linear-gradient-8" x1="3.25" y1="1079.26" x2="4.26" y2="1072.5" gradientTransform="matrix(70.91, 0, 0, -56.72, 501.18, 61581.53)" xlink:href="#linear-gradient"/><linearGradient id="linear-gradient-9" x1="2.88" y1="1076.71" x2="3.88" y2="1069.94" gradientTransform="matrix(85.09, 0, 0, -36.87, 479.91, 40093.25)" xlink:href="#linear-gradient"/><linearGradient id="linear-gradient-10" x1="12.26" y1="1065.04" x2="13.27" y2="1058.27" gradientTransform="matrix(14.18, 0, 0, -14.18, 613.22, 15574.25)" xlink:href="#linear-gradient"/><linearGradient id="linear-gradient-11" x1="10.38" y1="989.15" x2="11.39" y2="982.38" gradientTransform="matrix(17.02, 0, 0, -2.84, 560.74, 3306.39)" xlink:href="#linear-gradient"/><linearGradient id="linear-gradient-12" x1="12.26" y1="989.15" x2="13.27" y2="982.38" gradientTransform="matrix(14.18, 0, 0, -2.84, 557.91, 3312.06)" xlink:href="#linear-gradient"/><linearGradient id="linear-gradient-13" x1="11.23" y1="989.15" x2="12.24" y2="982.38" gradientTransform="matrix(15.6, 0, 0, -2.84, 563.58, 3317.74)" xlink:href="#linear-gradient"/><linearGradient id="linear-gradient-14" x1="38.56" y1="989.15" x2="39.57" y2="982.38" gradientTransform="matrix(4.26, 0, 0, -2.84, 567.83, 3317.74)" xlink:href="#linear-gradient"/><linearGradient id="linear-gradient-15" x1="29.2" y1="989.15" x2="30.21" y2="982.38" gradientTransform="matrix(5.67, 0, 0, -2.84, 583.44, 3312.06)" xlink:href="#linear-gradient"/></defs><title>logo-social-media-paid-advertising</title><g id="_004-social-media-1" data-name=" 004-social-media-1"><path id="Path_496" data-name="Path 496" class="cls-1" d="M753.36,557.89a1.42,1.42,0,1,0-2.83,0v1.42h-4.26a1.42,1.42,0,0,0,0,2.83h4.26v1.42a1.42,1.42,0,1,0,2.83,0v-1.42h34a1.42,1.42,0,0,0,0-2.83h-34Z" transform="translate(-725 -504)"/><path id="Path_497" data-name="Path 497" class="cls-2" d="M762.54,539.66a1.44,1.44,0,0,0-.67,1.21v11.35a1.42,1.42,0,0,0,1.41,1.42,1.43,1.43,0,0,0,.64-.15l11.35-5.67a1.43,1.43,0,0,0,.64-1.9,1.47,1.47,0,0,0-.64-.64l-11.35-5.67A1.44,1.44,0,0,0,762.54,539.66Zm2.17,3.5,6.75,3.38-6.75,3.38Z" transform="translate(-725 -504)"/><path id="Path_498" data-name="Path 498" class="cls-3" d="M751.94,542.29a1.42,1.42,0,0,0,0-2.84h0a4.26,4.26,0,0,0-4.25,4.26v1.42h-1.42a1.41,1.41,0,0,0-1.42,1.41,1.43,1.43,0,0,0,1.42,1.42h1.42v4.25a1.42,1.42,0,1,0,2.84,0V548h1.41a1.42,1.42,0,1,0,0-2.83h-1.42v-1.42A1.41,1.41,0,0,1,751.94,542.29Z" transform="translate(-725 -504)"/><path id="Path_499" data-name="Path 499" class="cls-4" d="M783.14,552.22a1.42,1.42,0,1,0,2.84,0h0v-7.09a1.42,1.42,0,0,0-2.84,0Z" transform="translate(-725 -504)"/><path id="Path_500" data-name="Path 500" class="cls-5" d="M786,540.87a1.42,1.42,0,1,1-1.42-1.42h0A1.43,1.43,0,0,1,786,540.87Z" transform="translate(-725 -504)"/><path id="Path_501" data-name="Path 501" class="cls-6" d="M743.44,532.36h-4.26a1.43,1.43,0,0,0-1.42,1.42v34a1.42,1.42,0,0,0,1.42,1.41h56.73a1.41,1.41,0,0,0,1.41-1.41V539.45a1.42,1.42,0,0,0-2.83,0V566.4H740.6V535.2h2.83a1.42,1.42,0,0,0,0-2.84h0Z" transform="translate(-725 -504)"/><path id="Path_502" data-name="Path 502" class="cls-7" d="M774.63,535.2a1.42,1.42,0,1,0,0-2.84h-9.92a1.42,1.42,0,1,0,0,2.84Z" transform="translate(-725 -504)"/><path id="Path_503" data-name="Path 503" class="cls-8" d="M801.58,538a1.42,1.42,0,0,0-1.42,1.41v31.2a1.41,1.41,0,0,1-1.42,1.42h-62.4a1.42,1.42,0,0,1-1.42-1.42V533.78a1.42,1.42,0,1,0-2.83,0v36.87a4.25,4.25,0,0,0,4.25,4.26H756.2v5.67h-8.51a4.26,4.26,0,0,0,0,8.51H787.4a1.42,1.42,0,1,0,0-2.84H747.69a1.42,1.42,0,1,1,0-2.83H787.4a1.42,1.42,0,1,0,0-2.84h-8.51v-5.67h19.86a4.26,4.26,0,0,0,4.25-4.26v-31.2a1.42,1.42,0,0,0-1.42-1.41Zm-25.53,42.54H759v-5.67h17Z" transform="translate(-725 -504)"/><path id="Path_504" data-name="Path 504" class="cls-9" d="M803,504H786a7.09,7.09,0,0,0-7.09,7.09v15.6H764.45a4.52,4.52,0,0,0,.26-1.42v-17a4.25,4.25,0,0,0-4.26-4.25h-31.2a4.25,4.25,0,0,0-4.25,4.25v17a4.25,4.25,0,0,0,4.25,4.26h16.43l10.93,10.93a1.43,1.43,0,0,0,2,0,1.45,1.45,0,0,0,.41-1v-9.93h20a7.12,7.12,0,0,0,7,5.67h17a7.1,7.1,0,0,0,7.09-7.09v-17A7.1,7.1,0,0,0,803,504Zm-44,22.69h-1.41a1.42,1.42,0,0,0-1.42,1.42V536l-8.92-8.92a1.42,1.42,0,0,0-1-.42h-17a1.41,1.41,0,0,1-1.41-1.42v-17a1.41,1.41,0,0,1,1.41-1.41h31.2a1.41,1.41,0,0,1,1.42,1.41v17a1.41,1.41,0,0,1-1.42,1.42Zm48.22,1.42a4.25,4.25,0,0,1-4.25,4.25H786a4.26,4.26,0,0,1-4.26-4.25v-17a4.26,4.26,0,0,1,4.26-4.25h17a4.25,4.25,0,0,1,4.25,4.25Z" transform="translate(-725 -504)"/><path id="Path_505" data-name="Path 505" class="cls-10" d="M800.16,518.18a1.43,1.43,0,0,0-1.42,1.42,4.25,4.25,0,1,1-4.25-4.25h0a1.42,1.42,0,0,0,0-2.84,7.09,7.09,0,1,0,7.09,7.09,1.42,1.42,0,0,0-1.42-1.42Z" transform="translate(-725 -504)"/><path id="Path_506" data-name="Path 506" class="cls-11" d="M753.36,509.67H739.18a1.42,1.42,0,1,0,0,2.84h14.18a1.42,1.42,0,0,0,0-2.84Z" transform="translate(-725 -504)"/><path id="Path_507" data-name="Path 507" class="cls-12" d="M733.51,518.18h11.34a1.42,1.42,0,1,0,0-2.83H733.51a1.42,1.42,0,1,0,0,2.83Z" transform="translate(-725 -504)"/><path id="Path_508" data-name="Path 508" class="cls-13" d="M753.36,521H740.6a1.42,1.42,0,1,0,0,2.83h12.76a1.42,1.42,0,1,0,0-2.83Z" transform="translate(-725 -504)"/><path id="Path_509" data-name="Path 509" class="cls-14" d="M734.93,521h-1.42a1.42,1.42,0,1,0,0,2.83h1.42a1.42,1.42,0,1,0,0-2.83Z" transform="translate(-725 -504)"/><path id="Path_510" data-name="Path 510" class="cls-15" d="M753.36,515.35h-2.83a1.42,1.42,0,1,0,0,2.83h2.83a1.42,1.42,0,1,0,0-2.83Z" transform="translate(-725 -504)"/></g></svg>