<svg xmlns="http://www.w3.org/2000/svg" xmlns:xlink="http://www.w3.org/1999/xlink" viewBox="0 0 493.66 363.44"><defs><style>.cls-1{isolation:isolate;}.cls-2{fill:url(#linear-gradient);}.cls-3{fill:url(#linear-gradient-2);}.cls-4{fill:url(#linear-gradient-3);}.cls-5,.cls-7,.cls-8,.cls-9{mix-blend-mode:screen;}.cls-5{fill:url(#linear-gradient-4);}.cls-6{fill:url(#linear-gradient-5);}.cls-7{fill:url(#linear-gradient-6);}.cls-8{fill:url(#linear-gradient-7);}.cls-9{fill:url(#linear-gradient-8);}.cls-10{fill:url(#linear-gradient-9);}.cls-11{fill:url(#linear-gradient-10);}.cls-12{fill:url(#linear-gradient-11);}.cls-13{fill:url(#linear-gradient-12);}.cls-14{mix-blend-mode:multiply;}</style><linearGradient id="linear-gradient" x1="246.83" y1="-14.26" x2="246.83" y2="101.3" gradientUnits="userSpaceOnUse"><stop offset="0.09" stop-color="#b4e0ff"/><stop offset="1" stop-color="#6b8ba5"/></linearGradient><linearGradient id="linear-gradient-2" x1="0" y1="227.98" x2="493.66" y2="227.98" xlink:href="#linear-gradient"/><linearGradient id="linear-gradient-3" x1="246.89" y1="2.56" x2="246.89" y2="399.87" gradientUnits="userSpaceOnUse"><stop offset="0" stop-color="#999da4"/><stop offset="1" stop-color="#464a5f"/></linearGradient><linearGradient id="linear-gradient-4" x1="159.54" y1="181.75" x2="334.24" y2="181.75" xlink:href="#linear-gradient"/><linearGradient id="linear-gradient-5" x1="246.88" y1="271.69" x2="246.88" y2="53.02" xlink:href="#linear-gradient"/><linearGradient id="linear-gradient-6" x1="246.89" y1="-219.18" x2="246.89" y2="74.27" xlink:href="#linear-gradient"/><linearGradient id="linear-gradient-7" x1="158.84" y1="136.36" x2="158.84" y2="2.61" xlink:href="#linear-gradient"/><linearGradient id="linear-gradient-8" x1="334.93" y1="136.36" x2="334.93" y2="2.61" xlink:href="#linear-gradient"/><linearGradient id="linear-gradient-9" x1="391.07" y1="-11.97" x2="391.07" y2="236.52" xlink:href="#linear-gradient"/><linearGradient id="linear-gradient-10" x1="102.71" y1="-11.97" x2="102.71" y2="236.52" xlink:href="#linear-gradient"/><linearGradient id="linear-gradient-11" x1="391.07" y1="48.43" x2="391.07" y2="324.45" xlink:href="#linear-gradient"/><linearGradient id="linear-gradient-12" x1="102.71" y1="48.43" x2="102.71" y2="324.45" xlink:href="#linear-gradient"/></defs><title>logo</title><g class="cls-1"><g id="objects"><polygon class="cls-2" points="70.79 0 0 92.52 493.66 92.52 422.86 0 70.79 0"/><polygon class="cls-3" points="0 92.52 246.83 363.44 493.66 92.52 0 92.52"/><polygon class="cls-4" points="247.01 363 398.33 92.59 246.89 0.07 95.44 92.59 246.76 363 246.76 363.44 246.89 363.22 247.01 363.44 247.01 363"/><polygon class="cls-5" points="246.95 363 334.24 92.59 246.89 0.07 159.54 92.59 246.81 363 246.81 363.44 246.89 363.22 246.95 363.44 246.95 363"/><polygon class="cls-6" points="246.92 363 292.95 92.59 200.82 92.59 246.85 363 246.85 363.44 246.89 363.22 246.92 363.44 246.92 363"/><polygon class="cls-7" points="334.24 92.59 246.89 0.07 159.54 92.59 334.24 92.59"/><polygon class="cls-8" points="70.79 0 159.54 92.59 246.89 0.07 70.79 0"/><polygon class="cls-9" points="422.98 0 334.24 92.59 246.89 0.07 422.98 0"/><polygon class="cls-10" points="422.98 0 448.17 92.78 333.98 268.11 398.33 92.59 422.98 0"/><polygon class="cls-11" points="70.79 0 45.61 92.78 159.8 268.11 95.44 92.59 70.79 0"/><polygon class="cls-12" points="333.98 268.11 448.17 92.78 398.26 92.78 333.98 268.11"/><polygon class="cls-13" points="45.61 92.78 159.8 268.11 95.51 92.78 45.61 92.78"/><g class="cls-14"><polygon class="cls-2" points="70.79 0 0 92.52 493.66 92.52 422.86 0 70.79 0"/><polygon class="cls-3" points="0 92.52 246.83 363.44 493.66 92.52 0 92.52"/><polygon class="cls-4" points="247.01 363 398.33 92.59 246.89 0.07 95.44 92.59 246.76 363 246.76 363.44 246.89 363.22 247.01 363.44 247.01 363"/><polygon class="cls-5" points="246.95 363 334.24 92.59 246.89 0.07 159.54 92.59 246.81 363 246.81 363.44 246.89 363.22 246.95 363.44 246.95 363"/><polygon class="cls-6" points="246.92 363 292.95 92.59 200.82 92.59 246.85 363 246.85 363.44 246.89 363.22 246.92 363.44 246.92 363"/><polygon class="cls-7" points="334.24 92.59 246.89 0.07 159.54 92.59 334.24 92.59"/><polygon class="cls-8" points="70.79 0 159.54 92.59 246.89 0.07 70.79 0"/><polygon class="cls-9" points="422.98 0 334.24 92.59 246.89 0.07 422.98 0"/><polygon class="cls-10" points="422.98 0 448.17 92.78 333.98 268.11 398.33 92.59 422.98 0"/><polygon class="cls-11" points="70.79 0 45.61 92.78 159.8 268.11 95.44 92.59 70.79 0"/><polygon class="cls-12" points="333.98 268.11 448.17 92.78 398.26 92.78 333.98 268.11"/><polygon class="cls-13" points="45.61 92.78 159.8 268.11 95.51 92.78 45.61 92.78"/></g></g></g></svg>